<?xml version="1.0" encoding="UTF-8" standalone="no"?>
<!-- Created with Inkscape (http://www.inkscape.org/) -->

<svg
   width="210mm"
   height="297mm"
   viewBox="0 0 210 297"
   version="1.1"
   id="svg1"
   inkscape:version="1.3.2 (091e20e, 2023-11-25, custom)"
   sodipodi:docname="2D.svg"
   xmlns:inkscape="http://www.inkscape.org/namespaces/inkscape"
   xmlns:sodipodi="http://sodipodi.sourceforge.net/DTD/sodipodi-0.dtd"
   xmlns="http://www.w3.org/2000/svg"
   xmlns:svg="http://www.w3.org/2000/svg">
  <sodipodi:namedview
     id="namedview1"
     pagecolor="#ffffff"
     bordercolor="#000000"
     borderopacity="0.25"
     inkscape:showpageshadow="2"
     inkscape:pageopacity="0.0"
     inkscape:pagecheckerboard="0"
     inkscape:deskcolor="#d1d1d1"
     inkscape:document-units="mm"
     inkscape:zoom="1.3843855"
     inkscape:cx="190.33715"
     inkscape:cy="418.59726"
     inkscape:window-width="1920"
     inkscape:window-height="991"
     inkscape:window-x="-9"
     inkscape:window-y="-9"
     inkscape:window-maximized="1"
     inkscape:current-layer="layer1"
     showgrid="false">
    <inkscape:grid
       id="grid7"
       units="mm"
       originx="0"
       originy="0"
       spacingx="0.99999998"
       spacingy="1"
       empcolor="#0099e5"
       empopacity="0.30196078"
       color="#0099e5"
       opacity="0.14901961"
       empspacing="5"
       dotted="false"
       gridanglex="30"
       gridanglez="30"
       visible="false" />
  </sodipodi:namedview>
  <defs
     id="defs1">
    <linearGradient
       id="swatch54"
       inkscape:swatch="solid">
      <stop
         style="stop-color:#e2450f;stop-opacity:0.78779841;"
         offset="0"
         id="stop54" />
    </linearGradient>
    <linearGradient
       id="swatch52"
       inkscape:swatch="solid">
      <stop
         style="stop-color:#000000;stop-opacity:1;"
         offset="0"
         id="stop52" />
    </linearGradient>
    <linearGradient
       id="swatch51"
       inkscape:swatch="solid">
      <stop
         style="stop-color:#000000;stop-opacity:1;"
         offset="0"
         id="stop51" />
    </linearGradient>
    <linearGradient
       id="swatch3"
       inkscape:swatch="solid">
      <stop
         style="stop-color:#000000;stop-opacity:1;"
         offset="0"
         id="stop3" />
    </linearGradient>
    <linearGradient
       id="swatch2"
       inkscape:swatch="solid">
      <stop
         style="stop-color:#371a1a;stop-opacity:1;"
         offset="0"
         id="stop2" />
    </linearGradient>
    <linearGradient
       id="swatch1"
       inkscape:swatch="solid">
      <stop
         style="stop-color:#000000;stop-opacity:1;"
         offset="0"
         id="stop1" />
    </linearGradient>
    <filter
       inkscape:collect="always"
       style="color-interpolation-filters:sRGB"
       id="filter46"
       x="-0.0052321858"
       y="-0.40419627"
       width="1.0104644"
       height="1.8083925">
      <feGaussianBlur
         inkscape:collect="always"
         stdDeviation="0.012584147"
         id="feGaussianBlur46" />
    </filter>
    <filter
       inkscape:collect="always"
       style="color-interpolation-filters:sRGB"
       id="filter66"
       x="-0.011618528"
       y="-0.0058812699"
       width="1.023237"
       height="1.0117625">
      <feGaussianBlur
         inkscape:collect="always"
         stdDeviation="8.5034964e-06"
         id="feGaussianBlur66" />
    </filter>
  </defs>
  <g
     inkscape:label="Layer 1"
     inkscape:groupmode="layer"
     id="layer1"
     style="stroke:#000000;stroke-opacity:1">
    <path
       style="opacity:1;fill:#ffffff;stroke:#000000;stroke-width:0.309;stroke-linejoin:round;stroke-dasharray:none;stroke-opacity:1;paint-order:markers fill stroke"
       d="m 41.49822,49.219039 c 4.372898,2.1447 25.532209,2.427913 28.502801,0.990385 1.246456,-3.195594 1.251178,-12.729671 0.278825,-13.544241 -7.122406,-3.599126 -13.359973,-3.855974 -16.204232,-4.141277 -3.951696,0.441728 -13.957033,5.346111 -13.610771,7.214251 0.14527,1.99678 0.560556,6.252011 1.033377,9.480885 z"
       id="path3"
       sodipodi:nodetypes="ccccccc" />
    <path
       style="opacity:1;fill:#ffffff;stroke:#000000;stroke-width:0.2;stroke-linejoin:round;stroke-dasharray:none;stroke-opacity:1;paint-order:markers fill stroke"
       d="M 49.0222,44.053087 C 49.084477,48.7428 48.534233,52.0033 48.257721,55.902508 L 61.6361,56.189188 C 61.00009,44.086846 61.880811,47.781414 62.018339,43.957529 58.98292,42.617161 53.935805,42.37929 49.0222,44.053087 Z"
       id="path5"
       sodipodi:nodetypes="ccccc" />
    <path
       style="opacity:1;fill:#ffffff;fill-opacity:1;stroke:#000000;stroke-width:0.1;stroke-linejoin:round;stroke-dasharray:none;stroke-opacity:1;paint-order:markers fill stroke"
       d="m 60.107813,33.232353 c 2.393529,6.711888 2.012832,5.797717 0.41892,10.131345"
       id="path14"
       sodipodi:nodetypes="cc" />
    <path
       style="opacity:1;fill:#ffffff;fill-opacity:1;stroke:#000000;stroke-width:0.1;stroke-linejoin:round;stroke-dasharray:none;stroke-opacity:1;paint-order:markers fill stroke"
       d="m 48.936584,47.92695 c -1.282815,0.647058 -2.46444,1.84781 -2.935138,2.341148"
       id="path18"
       sodipodi:nodetypes="cc" />
    <path
       style="opacity:1;fill:#ffffff;fill-opacity:1;stroke:#000000;stroke-width:0.0999997;stroke-linejoin:round;stroke-dasharray:none;stroke-opacity:1;paint-order:markers fill stroke"
       d="m 42.700046,37.368656 c -0.217147,0.455684 -0.678989,2.238998 -0.654544,3.184397 0.567541,2.001146 1.720222,3.771699 3.350711,4.557918 1.650851,-0.07927 2.654593,-0.651956 3.70302,-1.142808"
       id="path19"
       sodipodi:nodetypes="cccc" />
    <path
       style="opacity:1;fill:#ffffff;fill-opacity:1;stroke:#000000;stroke-width:0.1;stroke-linejoin:round;stroke-dasharray:none;stroke-opacity:1;paint-order:markers fill stroke"
       d="m 42.855215,37.215486 c -1.054068,3.006316 0.65335,6.152514 2.42121,7.055262 2.600924,0.160865 2.893948,-0.126688 4.048395,-0.359799"
       id="path20"
       sodipodi:nodetypes="ccc" />
    <path
       style="opacity:1;fill:#ffffff;fill-opacity:1;stroke:#000000;stroke-width:0.1;stroke-linejoin:round;stroke-dasharray:none;stroke-opacity:1;paint-order:markers fill stroke"
       d="m 42.440931,37.529364 0.589135,-0.371642"
       id="path21" />
    <path
       style="opacity:1;fill:#ffffff;fill-opacity:1;stroke:#000000;stroke-width:0.1;stroke-linejoin:round;stroke-dasharray:none;stroke-opacity:1;paint-order:markers fill stroke"
       d="m 49.882037,33.804295 c -0.60911,0.274909 -1.495169,2.845042 -1.836423,4.182193 -0.363957,1.108349 -0.135898,2.341109 0.14923,3.35099 0.537955,1.069284 1.620693,2.428417 1.74445,2.38115"
       id="path23"
       sodipodi:nodetypes="cccc" />
    <path
       style="opacity:1;fill:#ffffff;fill-opacity:1;stroke:#000000;stroke-width:0.1;stroke-linejoin:round;stroke-dasharray:none;stroke-opacity:1;paint-order:markers fill stroke"
       d="m 49.953909,33.660955 c -0.500159,0.939292 -1.091019,3.986575 -1.300024,5.582964 -0.105855,2.280158 1.135193,3.477656 1.33031,4.499448"
       id="path24"
       sodipodi:nodetypes="ccc" />
    <path
       style="opacity:1;fill:#ffffff;fill-opacity:1;stroke:#000000;stroke-width:0.1;stroke-linejoin:round;stroke-dasharray:none;stroke-opacity:1;paint-order:markers fill stroke"
       d="m 61.994449,43.909749 c 1.718171,1.020395 3.524501,1.80121 5.542471,1.481178 2.498017,-1.590957 2.488568,-2.545637 2.986247,-2.890686"
       id="path25"
       sodipodi:nodetypes="ccc" />
    <path
       style="opacity:1;fill:#ffffff;fill-opacity:1;stroke:#000000;stroke-width:0.1;stroke-linejoin:round;stroke-dasharray:none;stroke-opacity:1;paint-order:markers fill stroke"
       d="m 62.013298,44.005624 c 1.812452,0.579921 4.392541,0.67202 5.490145,-0.270285 1.083673,-2.358465 2.306552,-5.000296 1.520347,-7.686202"
       id="path26"
       sodipodi:nodetypes="ccc" />
    <path
       style="opacity:1;fill:#ffffff;fill-opacity:1;stroke:#000000;stroke-width:0.1;stroke-linejoin:round;stroke-dasharray:none;stroke-opacity:1;paint-order:markers fill stroke"
       d="m 50.383928,43.62307 c 0.178198,4.206059 0.03956,8.234218 -0.812259,12.255548"
       id="path27"
       sodipodi:nodetypes="cc" />
    <path
       style="opacity:1;fill:#ffffff;fill-opacity:1;stroke:#000000;stroke-width:0.1;stroke-linejoin:round;stroke-dasharray:none;stroke-opacity:1;paint-order:markers fill stroke"
       d="m 52.080117,43.264719 c 0.06505,4.451233 -0.138186,9.401373 -0.76448,12.685569"
       id="path28"
       sodipodi:nodetypes="cc" />
    <path
       style="opacity:1;fill:#ffffff;fill-opacity:1;stroke:#000000;stroke-width:0.1;stroke-linejoin:round;stroke-dasharray:none;stroke-opacity:1;paint-order:markers fill stroke"
       d="m 53.224772,47.684361 c 2.864036,0.230976 5.51525,0.23886 7.122855,0.02389"
       id="path29"
       sodipodi:nodetypes="cc" />
    <path
       style="opacity:1;fill:#ffffff;fill-opacity:1;stroke:#000000;stroke-width:0.1;stroke-linejoin:round;stroke-dasharray:none;stroke-opacity:1;paint-order:markers fill stroke"
       d="m 54.039091,42.978041 c 0.0824,1.545815 0.02622,2.617207 0.07167,4.70632"
       id="path30"
       sodipodi:nodetypes="cc" />
    <path
       style="opacity:1;fill:#ffffff;fill-opacity:1;stroke:#000000;stroke-width:0.1;stroke-linejoin:round;stroke-dasharray:none;stroke-opacity:1;paint-order:markers fill stroke"
       d="m 53.919641,49.69112 c -0.127413,2.049477 -0.302606,4.149091 -0.477799,6.283058"
       id="path31"
       sodipodi:nodetypes="cc" />
    <path
       style="opacity:1;fill:#ffffff;fill-opacity:1;stroke:#000000;stroke-width:0.1;stroke-linejoin:round;stroke-dasharray:none;stroke-opacity:1;paint-order:markers fill stroke"
       d="m 56.236967,48.783302 c -0.287433,2.047079 -0.217342,5.10859 -0.334459,7.214766"
       id="path32"
       sodipodi:nodetypes="cc" />
    <path
       style="opacity:1;fill:#ffffff;fill-opacity:1;stroke:#000000;stroke-width:0.0999994;stroke-linejoin:round;stroke-dasharray:none;stroke-opacity:1;paint-order:markers fill stroke"
       d="m 56.571426,42.860662 c -0.375682,1.632193 -0.267919,3.344959 -0.286679,5.036638"
       id="path33"
       sodipodi:nodetypes="cc" />
    <path
       style="opacity:1;fill:#ffffff;fill-opacity:1;stroke:#000000;stroke-width:0.0999994;stroke-linejoin:round;stroke-dasharray:none;stroke-opacity:1;paint-order:markers fill stroke"
       d="m 59.032092,43.195122 c -0.448898,1.200697 -0.367565,2.99338 -0.453909,4.749958"
       id="path34"
       sodipodi:nodetypes="cc" />
    <path
       style="opacity:1;fill:#ffffff;fill-opacity:1;stroke:#000000;stroke-width:0.0999994;stroke-linejoin:round;stroke-dasharray:none;stroke-opacity:1;paint-order:markers fill stroke"
       d="m 58.554293,48.833153 c -0.419834,2.359391 -0.331018,4.820512 -0.11945,7.306183"
       id="path35"
       sodipodi:nodetypes="cc" />
    <path
       style="opacity:1;fill:#ffffff;fill-opacity:1;stroke:#000000;stroke-width:0.1;stroke-linejoin:round;stroke-dasharray:none;stroke-opacity:1;paint-order:markers fill stroke"
       d="m 61.110521,43.670849 c -0.510245,1.199158 -0.771159,2.448182 -0.64503,3.774615"
       id="path36"
       sodipodi:nodetypes="cc" />
    <path
       style="opacity:1;fill:#ffffff;fill-opacity:1;stroke:#000000;stroke-width:0.0999994;stroke-linejoin:round;stroke-dasharray:none;stroke-opacity:1;paint-order:markers fill stroke"
       d="m 60.48938,48.594253 c -0.802073,2.239942 -0.402688,4.916072 -0.02389,7.521193"
       id="path37"
       sodipodi:nodetypes="cc" />
    <path
       style="opacity:1;fill:#ecb176;fill-opacity:1;stroke:#000000;stroke-width:0.2;stroke-linejoin:round;stroke-dasharray:none;stroke-opacity:1;paint-order:markers fill stroke"
       d="m 45.820073,53.53106 c 0,-0.106328 12.436818,-0.507125 18.627548,-0.09755 l 1.197943,15.916376 c 0.104865,1.393287 -4.687051,2.80625 -5.74446,2.968429 -4.698962,0.720704 -15.501039,0.207725 -15.248489,-3.170557 l 1.167458,-15.61669 z"
       id="path38"
       sodipodi:nodetypes="scsssss" />
    <path
       style="opacity:1;fill:#000000;fill-opacity:1;stroke:#000000;stroke-width:0.2;stroke-linejoin:round;stroke-dasharray:none;stroke-opacity:1;paint-order:markers fill stroke"
       d="m 50.588658,69.025362 c 0,0 6.873913,0.131932 9.158981,0.02537 l -0.754531,-3.995523 c -0.0677,-0.35849 -1.539314,-0.648026 -1.915707,-0.73317 -1.734724,-0.39241 -5.586614,0.06939 -5.750454,0.910986 z"
       id="path39"
       sodipodi:nodetypes="ccsssc" />
    <path
       style="opacity:1;fill:#000000;fill-opacity:1;stroke:#000000;stroke-width:0.2;stroke-linejoin:round;stroke-dasharray:none;stroke-opacity:1;paint-order:markers fill stroke"
       d="m 45.438705,58.769304 c 1.067085,-0.435363 1.969342,-0.301983 3.272925,-1.4317 0.251766,-0.965692 0.472267,-2.490722 0.548767,-3.722734 L 60.991069,53.5374 c -0.06256,1.105079 0.245926,2.661528 0.50169,3.702943 0.904857,1.043131 2.146766,1.187457 3.225146,1.767858 L 64.383446,53.58518 C 58.227799,53.262009 52.072152,53.295385 45.916505,53.60907 Z"
       id="path40"
       sodipodi:nodetypes="ccccccccc" />
    <path
       style="opacity:0.62899263;fill:#f5f5f5;fill-opacity:1;stroke:#b27c29;stroke-width:0.1;stroke-linejoin:round;stroke-dasharray:none;stroke-opacity:1;paint-order:markers fill stroke;filter:url(#filter46)"
       d="m 51.37979,54.398764 7.669782,0.472997"
       id="path41"
       sodipodi:nodetypes="cc" />
    <path
       style="opacity:1;fill:#000000;fill-opacity:1;stroke:#000000;stroke-width:0.1;stroke-linejoin:round;stroke-dasharray:none;stroke-opacity:1;paint-order:markers fill stroke"
       d="m 49.867409,57.840789 c -0.590762,0.377648 -0.914148,0.963255 -1.317635,1.486562 l 5.186075,-0.04224 C 54.219575,58.826096 54.37629,58.307624 54.631165,57.807 Z"
       id="path42"
       sodipodi:nodetypes="ccccc" />
    <path
       style="opacity:1;fill:#000000;fill-opacity:1;stroke:#000000;stroke-width:0.1;stroke-linejoin:round;stroke-dasharray:none;stroke-opacity:1;paint-order:markers fill stroke"
       d="m 60.506688,57.888569 c 0.571064,0.377648 0.883667,0.963255 1.2737,1.486562 l -5.013153,-0.04224 C 56.299639,58.873876 56.148149,58.355404 55.901773,57.85478 Z"
       id="path43"
       sodipodi:nodetypes="ccccc" />
    <path
       style="opacity:0.619;fill:#ff6600;fill-opacity:1;stroke:#b27c29;stroke-width:0.1;stroke-linejoin:round;stroke-dasharray:none;stroke-opacity:1;paint-order:markers fill stroke"
       d="m 54.639029,56.94142 -0.0099,0.83591"
       id="path45"
       sodipodi:nodetypes="cc" />
    <path
       style="opacity:0.619;fill:#ff6600;fill-opacity:1;stroke:#b27c29;stroke-width:0.0999999;stroke-linejoin:round;stroke-dasharray:none;stroke-opacity:1;paint-order:markers fill stroke"
       d="m 55.896302,56.564532 -0.0099,1.255328"
       id="path46"
       sodipodi:nodetypes="cc" />
    <path
       style="opacity:0.628993;fill:#f5f5f5;fill-opacity:1;stroke:#b27c29;stroke-width:0.322575;stroke-linejoin:round;stroke-dasharray:none;stroke-opacity:1;paint-order:markers fill stroke;filter:url(#filter46)"
       d="m 51.227755,54.846422 7.669782,0.472997"
       id="path47"
       sodipodi:nodetypes="cc"
       transform="matrix(0.73493348,0,0,-0.13076463,13.573252,61.960633)" />
    <path
       style="opacity:1;fill:none;fill-opacity:1;stroke:#000000;stroke-width:0;stroke-linejoin:round;stroke-dasharray:none;stroke-opacity:1;paint-order:markers fill stroke"
       d="m 64.997168,60.881484 2.500128,-0.06757 0.337854,5.000255 -2.601484,-0.06757"
       id="path50" />
    <path
       style="opacity:1;fill:#e2450f;fill-opacity:0.788235;stroke:#000000;stroke-width:0.1;stroke-linejoin:round;stroke-dasharray:none;stroke-opacity:1;paint-order:markers fill stroke"
       d="m 65.074689,61.669068 c 0.662741,-0.256619 0.775363,-0.198399 1.430692,-0.152795 0.226735,0.523356 0.609951,2.179253 0.239667,3.441759 -0.230639,0.290158 -0.721648,0.4453 -1.381443,0.396365 z"
       id="path51"
       sodipodi:nodetypes="ccccc" />
    <path
       style="opacity:1;fill:#e2450f;fill-opacity:0.788235;stroke:#000000;stroke-width:0.08;stroke-linejoin:round;stroke-dasharray:none;stroke-opacity:1;paint-order:markers fill stroke"
       d="m 65.112218,61.486246 c 0.319285,4.318866 0.327313,4.369612 0.327313,4.369612"
       id="path56" />
    <path
       style="opacity:1;fill:none;fill-opacity:0.788235;stroke:#000000;stroke-width:0.04;stroke-linejoin:round;stroke-dasharray:none;stroke-opacity:1;paint-order:markers fill stroke"
       d="m 65.239815,62.342706 c 0.324843,-0.02723 0.915239,0.04028 0.920653,-0.16048"
       id="path57"
       sodipodi:nodetypes="cc" />
    <path
       style="opacity:1;fill:none;fill-opacity:0.788235;stroke:#000000;stroke-width:0.04;stroke-linejoin:round;stroke-dasharray:none;stroke-opacity:1;paint-order:markers fill stroke"
       d="m 65.273601,63.364717 c 1.054058,-0.258188 1.709044,1.162673 0.135138,1.334529"
       id="path58"
       sodipodi:nodetypes="cc" />
    <path
       style="opacity:1;fill:#e2450f;fill-opacity:0.788235;stroke:#000000;stroke-width:0.1;stroke-linejoin:round;stroke-dasharray:none;stroke-opacity:1;paint-order:markers fill stroke"
       d="m 45.239505,61.743139 c -0.77425,-0.256619 -0.905821,-0.198399 -1.671412,-0.152795 -0.264884,0.523356 -0.712577,2.179253 -0.279992,3.441759 0.269445,0.290158 0.843069,0.4453 1.613877,0.396365 z"
       id="path59"
       sodipodi:nodetypes="ccccc" />
    <path
       style="opacity:1;fill:none;fill-opacity:0.788235;stroke:#000000;stroke-width:0.04;stroke-linejoin:round;stroke-dasharray:none;stroke-opacity:1;paint-order:markers fill stroke"
       d="m 43.903775,62.352799 c 0.312607,0.169978 0.779789,0.326035 1.170609,0.16723"
       id="path60"
       sodipodi:nodetypes="cc" />
    <path
       style="opacity:1;fill:none;fill-opacity:0.788235;stroke:#000000;stroke-width:0.04;stroke-linejoin:round;stroke-dasharray:none;stroke-opacity:1;paint-order:markers fill stroke"
       d="m 45.053587,63.353122 c -1.279003,-0.38997 -1.804768,1.022975 -0.13319,1.174969"
       id="path61"
       sodipodi:nodetypes="cc" />
    <path
       style="opacity:1;fill:#e2450f;fill-opacity:0.788235;stroke:#000000;stroke-width:0.08;stroke-linejoin:round;stroke-dasharray:none;stroke-opacity:1;paint-order:markers fill stroke"
       d="m 45.179992,61.396993 c -0.286361,4.353134 -0.297357,4.404863 -0.297357,4.404863"
       id="path62" />
    <path
       style="fill:none;fill-opacity:0.788235;stroke:#000000;stroke-width:0.308999;stroke-linejoin:round;stroke-dasharray:none;paint-order:markers fill stroke"
       d="M 83.245517,80.139221 81.26789,138.11516 c -16.757999,2.16982 -33.723002,2.06259 -50.841194,0.27028 L 27.030363,79.463512"
       id="path2"
       sodipodi:nodetypes="cccc" />
    <path
       style="fill:none;fill-opacity:0.788235;stroke:#000000;stroke-width:0.309;stroke-linejoin:round;stroke-dasharray:none;paint-order:markers fill stroke"
       d="m 44.803946,69.38329 -20.354837,8.600194 -3.765399,48.545726 6.702537,2.99779 2.070248,-7.57411"
       id="path4"
       sodipodi:nodetypes="ccccc" />
    <path
       style="fill:none;fill-opacity:0.788235;stroke:#000000;stroke-width:0.308999;stroke-linejoin:round;stroke-dasharray:none;paint-order:markers fill stroke"
       d="M 55.23359,72.91216 55.042469,74.823356 75.587838,78.359071 73.2944,138.84845"
       id="path6"
       sodipodi:nodetypes="cccc" />
    <path
       style="fill:none;fill-opacity:0.788235;stroke:#000000;stroke-width:0.309;stroke-linejoin:round;stroke-dasharray:none;paint-order:markers fill stroke"
       d="m 65.733126,69.518432 21.252915,8.600194 3.979313,48.115704 -7.046041,3.42781 -2.161589,-7.57411"
       id="path7"
       sodipodi:nodetypes="ccccc" />
    <ellipse
       style="fill:none;fill-opacity:0.788235;stroke:#000000;stroke-width:0.308999;stroke-linejoin:round;stroke-dasharray:none;paint-order:markers fill stroke"
       id="path8"
       cx="70.408997"
       cy="84.46376"
       rx="1.6217043"
       ry="1.3514203" />
    <ellipse
       style="fill:none;fill-opacity:0.788235;stroke:#000000;stroke-width:0.308999;stroke-linejoin:round;stroke-dasharray:none;paint-order:markers fill stroke"
       id="ellipse8"
       cx="69.867027"
       cy="99.354706"
       rx="1.6217043"
       ry="1.3514203" />
    <ellipse
       style="fill:none;fill-opacity:0.788235;stroke:#000000;stroke-width:0.308999;stroke-linejoin:round;stroke-dasharray:none;paint-order:markers fill stroke"
       id="ellipse9"
       cx="69.191315"
       cy="115.57175"
       rx="1.6217043"
       ry="1.3514203" />
    <ellipse
       style="fill:none;fill-opacity:0.788235;stroke:#000000;stroke-width:0.308999;stroke-linejoin:round;stroke-dasharray:none;paint-order:markers fill stroke"
       id="ellipse10"
       cx="68.650749"
       cy="131.92392"
       rx="1.6217043"
       ry="1.3514203" />
    <path
       style="fill:none;fill-opacity:0.788235;stroke:#000000;stroke-width:0.1;stroke-linejoin:round;stroke-dasharray:none;paint-order:markers fill stroke"
       d="m 52.350642,70.020462 v 0.929103 l 5.540825,0.01688 v -0.929101"
       id="path10" />
    <path
       style="fill:#ffffff;fill-opacity:1;stroke:#000000;stroke-width:0.02;stroke-linejoin:round;stroke-dasharray:none;stroke-opacity:1;paint-order:markers fill stroke"
       d="m 49.249155,59.366551 c -0.06146,0.899163 -0.166812,1.640132 1.373673,1.660354 1.980127,0.0079 3.029927,-0.05949 2.842904,-1.684243 z"
       id="path12"
       sodipodi:nodetypes="cccc" />
    <path
       style="fill:#000000;fill-opacity:1;stroke:#000000;stroke-width:0.02;stroke-linejoin:round;stroke-dasharray:none;stroke-opacity:1;paint-order:markers fill stroke"
       d="m 49.580184,59.350846 c -0.113993,0.882714 0.161882,1.445957 1.021311,1.49976 1.168791,-0.07508 2.800248,0.340508 2.472723,-1.479104 z"
       id="path13"
       sodipodi:nodetypes="cccc" />
    <path
       style="fill:#ffffff;fill-opacity:1;stroke:#000000;stroke-width:0.02;stroke-linejoin:round;stroke-dasharray:none;stroke-opacity:1;paint-order:markers fill stroke"
       d="m 56.953668,59.366551 c -0.06146,0.899163 0.107923,1.628187 1.648408,1.648409 1.980127,0.0079 2.755192,-0.04754 2.568169,-1.672298 z"
       id="path15"
       sodipodi:nodetypes="cccc" />
    <path
       style="fill:#000000;fill-opacity:1;stroke:#000000;stroke-width:0.02;stroke-linejoin:round;stroke-dasharray:none;stroke-opacity:1;paint-order:markers fill stroke"
       d="m 57.381955,59.379684 c -0.113993,0.882714 0.178774,1.378386 1.038203,1.432189 1.168791,-0.07508 2.597535,0.374293 2.27001,-1.445319 z"
       id="path16"
       sodipodi:nodetypes="cccc" />
    <path
       style="fill:none;fill-opacity:1;stroke:#000000;stroke-width:0.02;stroke-linejoin:round;stroke-dasharray:none;stroke-opacity:1;paint-order:markers fill stroke"
       d="m 53.533136,60.3747 c -0.0754,0.376189 -0.199998,0.749291 -0.422319,1.013565 -0.903121,0.274544 -1.991705,0.244411 -2.922446,0.202719"
       id="path17"
       sodipodi:nodetypes="ccc" />
    <path
       style="fill:none;fill-opacity:1;stroke:#000000;stroke-width:0.0199999;stroke-linejoin:round;stroke-dasharray:none;stroke-opacity:1;paint-order:markers fill stroke"
       d="m 56.662183,59.882743 c 0.177448,0.514018 0.211954,1.102821 0.431182,1.411284 1.101869,0.215018 2.637365,0.132518 3.870018,0.121081"
       id="path22"
       sodipodi:nodetypes="ccc" />
    <path
       style="fill:#e2450f;fill-opacity:0.788235;stroke:#000000;stroke-width:0.01;stroke-linejoin:round;stroke-dasharray:none;stroke-opacity:1;paint-order:markers fill stroke"
       d="m 54.689567,61.180742 c -0.265207,1.015643 -0.117021,2.317481 -0.901321,2.973752 0.628561,0.347539 1.068339,0.61134 1.755912,0.599237 0.565654,-0.15885 0.822229,-0.188528 1.445343,-0.550321 -0.612754,-0.806381 -0.673961,-2.026422 -0.965989,-3.073348 z"
       id="path55"
       sodipodi:nodetypes="cccccc" />
    <path
       style="fill:#e2450f;fill-opacity:0.788235;stroke:#000000;stroke-width:0.01;stroke-linejoin:round;stroke-dasharray:none;stroke-opacity:1;paint-order:markers fill stroke"
       d="m 54.664227,61.146956 c -0.169042,1.156202 -0.196607,2.489251 -0.875981,3.007538 0.628561,0.347539 1.068339,0.61134 1.755912,0.599237 0.565654,-0.15885 0.822229,-0.188528 1.445343,-0.550321 -0.608214,-0.803451 -0.690165,-2.0016 -0.974436,-3.048008 z"
       id="path64"
       sodipodi:nodetypes="cccccc" />
    <path
       style="fill:#e2450f;fill-opacity:0.788235;stroke:#000000;stroke-width:0.01;stroke-linejoin:round;stroke-dasharray:none;stroke-opacity:1;paint-order:markers fill stroke"
       d="m 54.664227,61.163849 c -0.237587,1.018256 -0.07663,2.193081 -0.875981,2.990645 0.628561,0.347539 1.068339,0.61134 1.755912,0.599237 0.565654,-0.15885 0.822229,-0.188528 1.445343,-0.550321 -0.650764,-0.850211 -0.666512,-2.01793 -0.957543,-3.048008 z"
       id="path65"
       sodipodi:nodetypes="cccccc" />
    <path
       style="opacity:1;fill:#e2450f;fill-opacity:0.788235;stroke:#000000;stroke-width:0.04;stroke-linejoin:round;stroke-dasharray:none;stroke-opacity:1;paint-order:markers fill stroke;filter:url(#filter66)"
       d="m 54.732113,61.358116 -0.17525,3.199926 c 0.469094,0.229327 0.422558,0.170858 0.91389,0.195721 0.405961,-0.0699 0.319818,0.03799 0.809249,-0.201464 l -0.285549,-3.20263 z"
       id="path66"
       sodipodi:nodetypes="cccccc" />
    <path
       style="opacity:1;fill:none;fill-opacity:0.788235;stroke:#000000;stroke-width:0.309;stroke-linejoin:round;stroke-dasharray:none;stroke-opacity:1;paint-order:markers fill stroke"
       d="m 39.813188,139.15615 1.334373,27.87136 9.468815,0.10831 -0.731919,-27.4399"
       id="path67"
       sodipodi:nodetypes="cccc" />
    <path
       style="opacity:1;fill:none;fill-opacity:0.788235;stroke:#000000;stroke-width:0.308999;stroke-linejoin:round;stroke-dasharray:none;stroke-opacity:1;paint-order:markers fill stroke"
       d="m 68.831072,139.43463 -0.950186,27.73622 -9.374223,-0.0944 0.363176,-27.37234"
       id="path68"
       sodipodi:nodetypes="cccc" />
    <path
       style="opacity:1;fill:none;fill-opacity:0.788235;stroke:#000000;stroke-width:0.209;stroke-linejoin:round;stroke-dasharray:none;stroke-opacity:1;paint-order:markers fill stroke"
       d="m 43.384169,167.15746 0.04778,3.34578"
       id="path69" />
    <path
       style="opacity:1;fill:none;fill-opacity:0.788235;stroke:#000000;stroke-width:0.209001;stroke-linejoin:round;stroke-dasharray:none;stroke-opacity:1;paint-order:markers fill stroke"
       d="m 48.186668,167.10405 -0.04901,5.05326"
       id="path70" />
    <path
       style="opacity:1;fill:none;fill-opacity:0.788235;stroke:#000000;stroke-width:0.209;stroke-linejoin:round;stroke-dasharray:none;stroke-opacity:1;paint-order:markers fill stroke"
       d="m 43.448901,170.39797 c 1.876345,-1.14404 4.64202,-0.47871 4.679476,1.77671"
       id="path71"
       sodipodi:nodetypes="cc" />
    <path
       style="opacity:1;fill:none;fill-opacity:0.788235;stroke:#000000;stroke-width:0.209;stroke-linejoin:round;stroke-dasharray:none;stroke-opacity:1;paint-order:markers fill stroke"
       d="m 48.161987,172.04506 c -1.665343,1.61253 -3.170245,3.22033 -4.734789,4.51144 -0.969844,0.56772 -3.138732,0.84158 -3.953548,-0.0951 -0.370253,-0.39554 -0.438083,-1.37438 -0.164112,-1.76218 0.692992,-1.01681 2.907083,-2.43407 4.08215,-3.47829"
       id="path72"
       sodipodi:nodetypes="ccccc" />
    <path
       style="opacity:1;fill:#000000;fill-opacity:1;stroke:#000000;stroke-width:0.209;stroke-linejoin:round;stroke-dasharray:none;stroke-opacity:1;paint-order:markers fill stroke"
       d="m 48.159262,171.97783 c -2.887952,2.07014 -3.530477,3.16599 -5.085663,4.33008 -0.978694,0.64184 -2.235665,0.36612 -3.022081,-0.23892 -0.481136,-0.3158 -0.904209,-1.01821 -0.597248,-1.56479 0.998354,-1.19031 2.79189,-2.86879 3.977679,-4.04935"
       id="path73"
       sodipodi:nodetypes="ccccc" />
    <path
       style="opacity:1;fill:#000000;fill-opacity:1;stroke:#000000;stroke-width:0.209;stroke-linejoin:round;stroke-dasharray:none;stroke-opacity:1;paint-order:markers fill stroke"
       d="m 43.482628,170.3943 4.529796,1.55409 c -0.09267,-0.53965 -0.596092,-1.65298 -1.736473,-1.81688 -2.051692,-0.52363 -2.971657,0.41803 -2.826509,1.01656"
       id="path74"
       sodipodi:nodetypes="cccc" />
    <path
       style="opacity:1;fill:#ecb176;fill-opacity:1;stroke:#000000;stroke-width:0;stroke-linejoin:round;stroke-dasharray:none;stroke-opacity:1;paint-order:markers fill stroke"
       d="m 43.517181,170.21385 c 2.81864,-1.23591 4.252746,0.25585 4.630841,1.85364 l -0.04035,-4.82983 -4.617271,-0.0163 z"
       id="path75"
       sodipodi:nodetypes="ccccc" />
  </g>
</svg>
