<?xml version="1.0" encoding="UTF-8" standalone="no"?>
<!-- Created with Inkscape (http://www.inkscape.org/) -->

<svg
   width="210mm"
   height="297mm"
   viewBox="0 0 210 297"
   version="1.1"
   id="svg1"
   inkscape:version="1.3.2 (091e20e, 2023-11-25, custom)"
   sodipodi:docname="2D.svg"
   xmlns:inkscape="http://www.inkscape.org/namespaces/inkscape"
   xmlns:sodipodi="http://sodipodi.sourceforge.net/DTD/sodipodi-0.dtd"
   xmlns="http://www.w3.org/2000/svg"
   xmlns:svg="http://www.w3.org/2000/svg">
  <sodipodi:namedview
     id="namedview1"
     pagecolor="#ffffff"
     bordercolor="#000000"
     borderopacity="0.25"
     inkscape:showpageshadow="2"
     inkscape:pageopacity="0.0"
     inkscape:pagecheckerboard="0"
     inkscape:deskcolor="#d1d1d1"
     inkscape:document-units="mm"
     showgrid="false"
     inkscape:zoom="0.69219276"
     inkscape:cx="13.724501"
     inkscape:cy="383.56368"
     inkscape:window-width="1920"
     inkscape:window-height="991"
     inkscape:window-x="-9"
     inkscape:window-y="-9"
     inkscape:window-maximized="1"
     inkscape:current-layer="layer1">
    <inkscape:grid
       id="grid1"
       units="mm"
       originx="0"
       originy="0"
       spacingx="0.99999998"
       spacingy="1"
       empcolor="#0099e5"
       empopacity="0.30196078"
       color="#0099e5"
       opacity="0.14901961"
       empspacing="5"
       dotted="false"
       gridanglex="30"
       gridanglez="30"
       visible="false" />
  </sodipodi:namedview>
  <defs
     id="defs1" />
  <g
     inkscape:label="Layer 1"
     inkscape:groupmode="layer"
     id="layer1">
    <path
       style="fill:#ff8c9e;fill-opacity:1;stroke:#000000;stroke-width:0.2;stroke-linejoin:round;stroke-dasharray:none;paint-order:markers fill stroke"
       d="M 29.43889,34.320216 C 27.115922,45.537274 26.049798,59.789138 28.503681,71.553375 L 5.8136385,96.586792 c -1.1051888,7.862328 4.2930515,8.707728 7.5633465,7.386918 l 14.52959,-16.004976 -1.587944,31.466226 c 16.188218,5.98067 35.672628,4.86571 51.860846,-0.0447 L 76.073156,87.968734 91.100337,103.35813 c 3.814776,-0.2395 7.092535,-2.1063 6.269609,-7.592101 L 75.675084,70.732608 C 77.301012,59.583845 76.439462,46.417493 74.881113,35.26873 56.733495,28.164477 43.716775,29.678896 29.43889,34.320216 Z"
       id="path1"
       sodipodi:nodetypes="ccccccccccccc" />
    <path
       style="fill:#ff8c9e;fill-opacity:1;stroke:#000000;stroke-width:0.2;stroke-linejoin:round;stroke-dasharray:none;paint-order:markers fill stroke"
       d="m 37.263881,71.048285 c -1.093642,0.423301 -1.606863,1.013965 -1.644654,2.283062"
       id="path3"
       sodipodi:nodetypes="cc" />
    <path
       style="fill:#ff8c9e;fill-opacity:1;stroke:#000000;stroke-width:0.2;stroke-linejoin:round;stroke-dasharray:none;paint-order:markers fill stroke"
       d="m 66.482985,71.060356 c 1.276632,0.423301 1.875726,1.013965 1.919841,2.283062"
       id="path5"
       sodipodi:nodetypes="cc" />
    <path
       style="fill:#ff8c9e;fill-opacity:1;stroke:#000000;stroke-width:0.2;stroke-linejoin:round;stroke-dasharray:none;paint-order:markers fill stroke"
       d="m 36.083526,71.893057 c 3.85966,6.564072 26.732807,7.018131 31.475077,-0.1067"
       id="path6"
       sodipodi:nodetypes="cc" />
    <path
       style="fill:#ffffff;fill-opacity:1;stroke:#000000;stroke-width:0.2;stroke-linejoin:round;stroke-dasharray:none;paint-order:markers fill stroke"
       d="m 38.593741,51.319142 c 5.436508,-2.787622 11.009213,-1.342677 12.703546,1.114983 0.536545,3.247234 1.313088,12.28403 -1.020821,13.114329 -2.788804,1.605215 -6.680748,1.876223 -11.966286,10e-7 -1.625751,-1.504342 -1.074025,-13.240562 0.283561,-14.229313 z"
       id="path7"
       sodipodi:nodetypes="ccccc" />
    <path
       style="fill:#ffffff;fill-opacity:1;stroke:#000000;stroke-width:0.2;stroke-linejoin:round;stroke-dasharray:none;paint-order:markers fill stroke"
       d="m 53.110529,51.544402 c 5.436508,-2.787622 11.009213,-1.342676 12.703547,1.114983 0.536544,3.247235 1.313087,12.284031 -1.020821,13.114329 -2.788804,1.605215 -6.680748,1.876223 -11.966287,10e-7 -1.625751,-1.504342 -1.074024,-13.240562 0.283561,-14.229313 z"
       id="path8"
       sodipodi:nodetypes="ccccc" />
    <rect
       style="fill:#000000;fill-opacity:1;stroke:#000000;stroke-width:0.200111;stroke-linejoin:round;stroke-dasharray:none;paint-order:markers fill stroke"
       id="rect9"
       width="10.218582"
       height="2.6586225"
       x="17.265818"
       y="56.270599"
       transform="matrix(0.95293182,-0.30318467,0.34758583,0.93764817,0,0)"
       inkscape:transform-center-x="-0.51659749"
       inkscape:transform-center-y="-1.5503465" />
    <rect
       style="fill:#000000;fill-opacity:1;stroke:#000000;stroke-width:0.200004;stroke-linejoin:round;stroke-dasharray:none;paint-order:markers fill stroke"
       id="rect10"
       width="10.031481"
       height="2.6783643"
       x="-78.929977"
       y="23.42688"
       transform="matrix(-0.94593333,-0.32436113,-0.31620172,0.94869198,0,0)"
       inkscape:transform-center-x="0.52616438"
       inkscape:transform-center-y="-1.6937678" />
    <rect
       style="fill:#ffa24c;fill-opacity:1;stroke:none;stroke-width:0.200152;stroke-linejoin:round;stroke-dasharray:none;paint-order:markers fill stroke"
       id="rect15"
       width="2.569972"
       height="2.326329"
       x="29.835102"
       y="127.20026"
       transform="matrix(0.89232794,-0.4513877,0.49986316,0.86610439,0,0)" />
    <rect
       style="fill:#ffa24c;fill-opacity:1;stroke:none;stroke-width:0.200216;stroke-linejoin:round;stroke-dasharray:none;paint-order:markers fill stroke"
       id="rect16"
       width="2.5186887"
       height="2.3752134"
       x="-12.572566"
       y="-74.032097"
       transform="matrix(-0.70424005,0.70996194,-0.75465951,-0.65611663,0,0)" />
    <rect
       style="fill:#ffa24c;fill-opacity:1;stroke:none;stroke-width:0.200189;stroke-linejoin:round;stroke-dasharray:none;paint-order:markers fill stroke"
       id="rect17"
       width="2.5545838"
       height="2.3412085"
       x="48.44537"
       y="12.116202"
       transform="matrix(0.84144989,0.54033516,-0.59099989,0.80667163,0,0)" />
    <path
       style="fill:#ff8c9e;fill-opacity:1;stroke:#000000;stroke-width:0.2;stroke-linejoin:round;stroke-dasharray:none;paint-order:markers fill stroke"
       d="m 51.159941,118.90905 c 0.69206,1.48547 2.527224,1.72658 3.637418,0.10828"
       id="path17"
       sodipodi:nodetypes="cc" />
    <path
       style="fill:#ff8c9e;fill-opacity:1;stroke:#000000;stroke-width:0.2;stroke-linejoin:round;stroke-dasharray:none;paint-order:markers fill stroke"
       d="m 51.859233,118.66926 c 0.4342,1.13542 1.794845,1.15491 2.349134,7.9e-4"
       id="path18"
       sodipodi:nodetypes="cc" />
    <path
       style="fill:#52af33;fill-opacity:1;stroke:#000000;stroke-width:0.2;stroke-linejoin:round;stroke-dasharray:none;stroke-opacity:1;paint-order:markers fill stroke"
       d="m 26.435496,115.83425 c -0.498333,8.28493 1.550214,17.12116 2.51118,25.19208 l 14.23247,0.21282 1.984339,-5.9593 c 7.837752,2.21283 9.154524,1.37388 14.136019,0.21283 l 2.324924,5.64006 13.77703,-0.10641 c 1.115636,-7.92108 3.539524,-18.28629 2.439677,-26.20738 -19.735275,10.89174 -30.963926,10.60351 -51.405639,1.0153 z"
       id="path19"
       sodipodi:nodetypes="ccccccccc" />
    <path
       style="fill:#ff8c9e;fill-opacity:1;stroke:#000000;stroke-width:0.2;stroke-linejoin:round;stroke-dasharray:none;stroke-opacity:1;paint-order:markers fill stroke"
       d="m 30.413904,141.10187 c 0.391196,2.72051 0.663855,5.73175 1.074681,7.5705 3.123884,1.03078 6.106724,0.87315 9.017251,0.1062 0.831769,-1.94509 1.198234,-5.0741 1.338783,-7.57696 z"
       id="path20"
       sodipodi:nodetypes="ccccc" />
    <path
       style="fill:#ff8c9e;fill-opacity:1;stroke:#000000;stroke-width:0.2;stroke-linejoin:round;stroke-dasharray:none;stroke-opacity:1;paint-order:markers fill stroke"
       d="m 63.1271,141.14585 c 0.122699,2.8462 0.681783,5.9092 1.244819,7.6767 3.123883,1.03077 6.106724,0.87314 9.01725,0.10619 0.83177,-1.94509 0.943029,-5.36613 1.083578,-7.86898 z"
       id="path21"
       sodipodi:nodetypes="ccccc" />
    <path
       style="fill:#542288;fill-opacity:1;stroke:none;stroke-width:0.2;stroke-linejoin:round;stroke-dasharray:none;stroke-opacity:1;paint-order:markers fill stroke"
       d="m 42.434053,121.78004 c -0.6621,1.82291 -0.545393,3.64581 -2e-6,5.46873 2.419724,0.69373 4.839447,0.49317 7.259171,0.21238 -1.258825,2.11667 -1.932585,4.18356 -1.531232,6.15895 2.656569,0.90118 5.550245,1.18081 8.960538,0.10619 -0.354594,-2.10608 -0.638664,-4.21216 -1.871504,-6.31824 2.206019,0.80637 4.232242,0.26614 6.29506,0 0.416327,-1.94247 0.532441,-4.02042 -0.255204,-5.6811 -4.838517,1.61809 -12.147185,1.97005 -18.856827,0.0531 z"
       id="path22"
       sodipodi:nodetypes="ccccccccc" />
    <ellipse
       style="fill:#ffa24c;fill-opacity:1;stroke:none;stroke-width:0.2;stroke-linejoin:round;stroke-dasharray:none;stroke-opacity:1;paint-order:markers fill stroke"
       id="ellipse23"
       cx="71.601944"
       cy="147.39957"
       rx="0.78198171"
       ry="0.65701032" />
    <path
       style="fill:#542288;fill-opacity:1;stroke:none;stroke-width:0.2;stroke-linejoin:round;stroke-dasharray:none;stroke-opacity:1;paint-order:markers fill stroke"
       d="m 27.859,132.92988 c 0.927576,0.99053 1.632456,2.11754 2.069998,3.53077 -0.06236,0.81801 -0.605564,1.60292 -1.077532,2.17687 2.541427,-1.10901 2.94047,-1.0146 4.111638,-1.3539 1.695835,1.06923 2.552172,2.55265 3.657943,3.84935 l -7.599445,-0.15929 z"
       id="path27"
       sodipodi:nodetypes="ccccccc" />
    <path
       style="fill:#542288;fill-opacity:1;stroke:none;stroke-width:0.2;stroke-linejoin:round;stroke-dasharray:none;stroke-opacity:1;paint-order:markers fill stroke"
       d="m 76.635347,132.96007 c -0.874453,0.95759 -1.595556,2.09677 -2.049721,3.49366 0.01981,0.81946 0.471763,1.62251 0.869206,2.21233 -2.227434,-1.19607 -2.589007,-1.11554 -3.623044,-1.4951 -1.566032,1.0096 -2.398394,2.55598 -3.445941,3.81329 l 6.954021,0.0101 z"
       id="path28"
       sodipodi:nodetypes="ccccccc" />
    <path
       style="fill:none;fill-opacity:1;stroke:#000000;stroke-width:0.2;stroke-linejoin:round;stroke-dasharray:none;stroke-opacity:1;paint-order:markers fill stroke"
       d="m 26.441194,118.08998 c 14.870823,6.75253 31.146682,10.93852 51.65514,-0.9997"
       id="path29"
       sodipodi:nodetypes="cc" />
    <rect
       style="fill:#ffa24c;fill-opacity:1;stroke:none;stroke-width:0.2;stroke-linejoin:round;stroke-dasharray:none;stroke-opacity:1;paint-order:markers fill stroke"
       id="rect29"
       width="2.5264022"
       height="2.2338352"
       x="36.686016"
       y="89.012543" />
    <rect
       style="fill:#ffa24c;fill-opacity:1;stroke:none;stroke-width:0.2;stroke-linejoin:round;stroke-dasharray:none;stroke-opacity:1;paint-order:markers fill stroke"
       id="rect30"
       width="2.5264022"
       height="2.2338352"
       x="65.308846"
       y="89.852165" />
    <rect
       style="fill:#ffa24c;fill-opacity:1;stroke:none;stroke-width:0.200156;stroke-linejoin:round;stroke-dasharray:none;stroke-opacity:1;paint-order:markers fill stroke"
       id="rect31"
       width="2.4897325"
       height="2.2702622"
       x="-28.676413"
       y="113.09557"
       transform="matrix(0.88849896,-0.45887862,0.50766681,0.86155348,0,0)" />
    <rect
       style="fill:#ffa24c;fill-opacity:1;stroke:none;stroke-width:0.201112;stroke-linejoin:round;stroke-dasharray:none;stroke-opacity:1;paint-order:markers fill stroke"
       id="rect32"
       width="2.0451941"
       height="1.7596784"
       x="-53.427078"
       y="146.26582"
       transform="matrix(0.90758875,-0.41986028,0.54958588,0.83543723,0,0)" />
    <rect
       style="fill:#ffa24c;fill-opacity:1;stroke:none;stroke-width:0.201112;stroke-linejoin:round;stroke-dasharray:none;stroke-opacity:1;paint-order:markers fill stroke"
       id="rect33"
       width="2.0451941"
       height="1.7596784"
       x="-22.477629"
       y="164.87572"
       transform="matrix(0.90758875,-0.41986028,0.54958588,0.83543723,0,0)" />
    <rect
       style="fill:#ffa24c;fill-opacity:1;stroke:none;stroke-width:0.2;stroke-linejoin:round;stroke-dasharray:none;stroke-opacity:1;paint-order:markers fill stroke"
       id="rect34"
       width="2.5264022"
       height="2.2338352"
       x="10.980871"
       y="96.821579" />
    <path
       style="fill:#ff8c9e;fill-opacity:1;stroke:#000000;stroke-width:0.2;stroke-linejoin:round;stroke-dasharray:none;stroke-opacity:1;paint-order:markers fill stroke"
       d="m 139.36102,36.53636 c 10.54826,-8.478432 30.99087,-6.955295 39.11009,-2.060192 13.83721,7.956218 9.81318,36.117337 1.30802,37.320866 7.85669,7.539605 14.13382,13.201238 19.28604,21.708139 7.32376,8.278427 -1.68648,14.628087 -9.70334,6.681917 -4.88619,-6.426038 -5.89918,-5.591467 -9.4751,-11.541624 4.45259,10.406305 4.83889,23.016984 -0.43963,29.437074 -9.10821,10.06626 -26.10594,9.5247 -37.21028,0.83644 -7.97558,-5.93911 -8.95627,-18.38815 -2.13186,-30.967052 -3.04268,5.151686 -12.14111,11.961303 -12.14111,11.961303 -5.17996,6.590969 -15.32401,1.597899 -9.16538,-5.956008 2.47252,-5.490171 10.42018,-13.449854 21.80755,-22.253812 -9.3378,-2.500207 -12.35467,-26.610492 -1.245,-35.167051 z"
       id="path57"
       sodipodi:nodetypes="ccccccccccccc" />
    <path
       style="fill:#52af33;fill-opacity:1;stroke:#000000;stroke-width:0.2;stroke-linejoin:round;stroke-dasharray:none;stroke-opacity:1;paint-order:markers fill stroke"
       d="m 135.76743,107.61661 c -2.98016,8.27197 -0.50152,27.26039 2.44584,32.53384 6.48969,4.04155 12.27117,0.66616 12.37941,0.55924 l 3.85525,-4.90504 c 5.5389,3.71323 6.98832,2.08337 10.4684,0.18739 l 3.92283,4.37109 c 4.95304,4.00181 10.62185,0.34873 11.07126,-0.10094 3.63101,-3.64385 7.12827,-24.14144 3.28004,-32.05218 -6.62819,23.6312 -39.56392,22.30649 -46.80611,0.71548 z"
       id="path58"
       sodipodi:nodetypes="cccccccccc" />
    <path
       style="fill:#ff8c9e;fill-opacity:1;stroke:#000000;stroke-width:0.2;stroke-linejoin:round;stroke-dasharray:none;stroke-opacity:1;paint-order:markers fill stroke"
       d="m 169.91916,141.10316 c -0.56803,2.79343 -0.22078,6.96258 2.38017,7.32749 0.69223,0.40188 3.41409,0.47132 5.75315,-0.20402 1.1852,-0.48055 1.9931,-4.46028 1.28207,-7.43881 -1.35031,1.0205 -6.55924,2.11356 -9.31241,0.42706 z"
       id="path59"
       sodipodi:nodetypes="cccccc" />
    <path
       style="fill:#ff8c9e;fill-opacity:1;stroke:#000000;stroke-width:0.2;stroke-linejoin:round;stroke-dasharray:none;stroke-opacity:1;paint-order:markers fill stroke"
       d="m 139.52758,141.05299 c -0.56802,2.27804 -0.35065,7.02508 2.2503,7.38999 0.67834,0.32548 3.63469,0.53227 6.19985,0.0289 1.1852,-0.48056 2.7327,-4.47049 2.02167,-7.44901 -1.98601,1.19246 -7.27181,1.74554 -10.07661,0.17164 z"
       id="path60"
       sodipodi:nodetypes="cccccc" />
    <path
       style="fill:#ff8c9e;fill-opacity:1;stroke:#000000;stroke-width:0.2;stroke-linejoin:round;stroke-dasharray:none;paint-order:markers fill stroke"
       d="m 147.66469,68.249549 c -1.05104,0.372715 -1.54428,0.892792 -1.58061,2.010227"
       id="path61"
       sodipodi:nodetypes="cc" />
    <path
       style="fill:#ff8c9e;fill-opacity:1;stroke:#000000;stroke-width:0.2;stroke-linejoin:round;stroke-dasharray:none;paint-order:markers fill stroke"
       d="m 173.64744,68.277603 c 1.22692,0.372715 1.80269,0.892793 1.84509,2.010228"
       id="path62"
       sodipodi:nodetypes="cc" />
    <path
       style="fill:#ff8c9e;fill-opacity:1;stroke:#000000;stroke-width:0.2;stroke-linejoin:round;stroke-dasharray:none;paint-order:markers fill stroke"
       d="m 146.47294,69.131443 c 3.47848,6.156558 24.09259,6.582429 28.36649,-0.100076"
       id="path63"
       sodipodi:nodetypes="cc" />
    <path
       style="fill:#ff8c9e;fill-opacity:1;stroke:#000000;stroke-width:0.2;stroke-linejoin:round;stroke-dasharray:none;paint-order:markers fill stroke"
       d="m 158.17446,123.08224 c 0.80422,1.52302 3.32437,1.54917 4.35101,8.6e-4"
       id="path65"
       sodipodi:nodetypes="cc" />
    <path
       style="fill:#ff8c9e;fill-opacity:1;stroke:#000000;stroke-width:0.2;stroke-linejoin:round;stroke-dasharray:none;paint-order:markers fill stroke"
       d="m 159.20356,122.86249 c 0.4173,0.99973 1.72495,1.01689 2.25766,6.9e-4"
       id="path66"
       sodipodi:nodetypes="cc" />
    <ellipse
       style="fill:#ffa24c;fill-opacity:1;stroke:none;stroke-width:0.2;stroke-linejoin:round;stroke-dasharray:none;stroke-opacity:1;paint-order:markers fill stroke"
       id="path67"
       cx="141.60127"
       cy="145.13469"
       rx="0.9183833"
       ry="0.77829576" />
    <ellipse
       style="fill:#ffa24c;fill-opacity:1;stroke:none;stroke-width:0.2;stroke-linejoin:round;stroke-dasharray:none;stroke-opacity:1;paint-order:markers fill stroke"
       id="ellipse67"
       cx="176.79439"
       cy="146.95515"
       rx="0.9183833"
       ry="0.77829576"
       inkscape:transform-center-x="20.296279"
       inkscape:transform-center-y="-1.8931501" />
    <ellipse
       style="fill:#ffa24c;fill-opacity:1;stroke:none;stroke-width:0.2;stroke-linejoin:round;stroke-dasharray:none;stroke-opacity:1;paint-order:markers fill stroke"
       id="ellipse68"
       cx="145.23788"
       cy="115.0297"
       rx="0.9183833"
       ry="0.77829576" />
    <ellipse
       style="fill:#ffa24c;fill-opacity:1;stroke:none;stroke-width:0.2;stroke-linejoin:round;stroke-dasharray:none;stroke-opacity:1;paint-order:markers fill stroke"
       id="ellipse69"
       cx="146.98799"
       cy="91.924828"
       rx="1.2398175"
       ry="1.1148561" />
    <ellipse
       style="fill:#ffa24c;fill-opacity:1;stroke:none;stroke-width:0.2;stroke-linejoin:round;stroke-dasharray:none;stroke-opacity:1;paint-order:markers fill stroke"
       id="ellipse70"
       cx="173.91885"
       cy="92.477722"
       rx="1.2857366"
       ry="1.0727861" />
    <ellipse
       style="fill:#ffa24c;fill-opacity:1;stroke:none;stroke-width:0.2;stroke-linejoin:round;stroke-dasharray:none;stroke-opacity:1;paint-order:markers fill stroke"
       id="ellipse71"
       cx="196.41022"
       cy="98.013832"
       rx="0.9183833"
       ry="0.77829576" />
    <ellipse
       style="fill:#ffa24c;fill-opacity:1;stroke:none;stroke-width:0.2;stroke-linejoin:round;stroke-dasharray:none;stroke-opacity:1;paint-order:markers fill stroke"
       id="ellipse72"
       cx="124.58714"
       cy="95.396011"
       rx="0.9183833"
       ry="0.77829576" />
    <ellipse
       style="fill:#ffa24c;fill-opacity:1;stroke:none;stroke-width:0.2;stroke-linejoin:round;stroke-dasharray:none;stroke-opacity:1;paint-order:markers fill stroke"
       id="ellipse73"
       cx="142.83186"
       cy="40.163296"
       rx="1.2398175"
       ry="1.1148561" />
    <ellipse
       style="fill:#ffa24c;fill-opacity:1;stroke:none;stroke-width:0.2;stroke-linejoin:round;stroke-dasharray:none;stroke-opacity:1;paint-order:markers fill stroke"
       id="ellipse74"
       cx="176.48178"
       cy="38.569996"
       rx="1.147979"
       ry="1.0727861" />
    <ellipse
       style="fill:#ffffff;fill-opacity:1;stroke:#000000;stroke-width:0.2;stroke-linejoin:round;stroke-dasharray:none;stroke-opacity:1;paint-order:markers fill stroke"
       id="path74"
       ry="8.7914"
       rx="8.1820498"
       cy="54.850029"
       cx="152.91777" />
    <ellipse
       style="fill:#ffffff;fill-opacity:1;stroke:#000000;stroke-width:0.2;stroke-linejoin:round;stroke-dasharray:none;stroke-opacity:1;paint-order:markers fill stroke"
       id="ellipse75"
       ry="8.7914"
       rx="8.1820498"
       cy="55.266502"
       cx="169.47734" />
    <rect
       style="fill:#000000;fill-opacity:1;stroke:none;stroke-width:0.2;stroke-linejoin:round;stroke-dasharray:none;stroke-opacity:1;paint-order:markers fill stroke"
       id="rect75"
       width="5.03404"
       height="4.9664688"
       x="44.626678"
       y="56.555599" />
    <rect
       style="fill:#000000;fill-opacity:1;stroke:none;stroke-width:0.2;stroke-linejoin:round;stroke-dasharray:none;stroke-opacity:1;paint-order:markers fill stroke"
       id="rect76"
       width="5.03404"
       height="4.9664688"
       x="54.057636"
       y="56.69244" />
    <ellipse
       style="fill:#000000;fill-opacity:1;stroke:#000000;stroke-width:0.200001;stroke-linejoin:round;stroke-dasharray:none;paint-order:markers fill stroke"
       id="ellipse76"
       cx="155.47896"
       cy="55.704327"
       rx="2.4829314"
       ry="2.2378769" />
    <ellipse
       style="fill:#000000;fill-opacity:1;stroke:#000000;stroke-width:0.200001;stroke-linejoin:round;stroke-dasharray:none;paint-order:markers fill stroke"
       id="ellipse77"
       cx="165.99915"
       cy="55.67458"
       rx="2.4829314"
       ry="2.2378769" />
    <path
       style="fill:#000000;fill-opacity:1;stroke:none;stroke-width:0.2;stroke-linejoin:round;stroke-dasharray:none;stroke-opacity:1;paint-order:markers fill stroke"
       d="m 145.11014,43.231476 c -0.30775,1.01717 -1.19163,2.088739 0.84951,3.42871 2.90205,-2.371493 6.78211,-2.736566 10.53846,-1.745907 0.62365,-1.006833 1.31064,-1.997841 -0.68879,-3.660094 -3.78121,-0.451687 -6.94178,-0.784667 -10.69918,1.977291 z"
       id="path77"
       sodipodi:nodetypes="ccccc" />
    <path
       style="fill:#000000;fill-opacity:1;stroke:none;stroke-width:0.2;stroke-linejoin:round;stroke-dasharray:none;stroke-opacity:1;paint-order:markers fill stroke"
       d="m 165.29426,41.574898 c -0.61193,0.894323 -1.79295,1.690079 -0.25438,3.508201 3.5203,-1.513644 7.35261,-0.848558 10.64388,1.083467 0.91146,-0.801786 1.87868,-1.571835 0.48051,-3.687913 -3.48304,-1.42199 -6.40828,-2.567867 -10.87001,-0.903755 z"
       id="path78"
       sodipodi:nodetypes="ccccc" />
    <path
       style="fill:#542288;fill-opacity:1;stroke:none;stroke-width:0.2;stroke-linejoin:round;stroke-dasharray:none;stroke-opacity:1;paint-order:markers fill stroke"
       d="m 149.77444,123.34853 c -1.61483,1.32196 -2.24388,3.43437 0.48704,5.67789 1.98382,1.18472 4.422,0.85852 6.91153,0.33574 -1.50203,1.77447 -1.85733,3.98109 -1.47161,5.72042 2.16347,1.03146 5.30163,1.27768 8.41677,-0.085 0.8606,-2.00314 -0.22416,-4.63098 -1.6038,-5.68218 2.1201,0.71001 5.9182,1.15653 7.15388,0 2.02359,-1.11537 2.55729,-5.56283 0.46906,-5.71614 -3.38375,1.69246 -12.42091,3.28152 -20.33039,-0.28047 z"
       id="path79"
       sodipodi:nodetypes="cccccccccc" />
    <path
       style="fill:#542288;fill-opacity:1;stroke:none;stroke-width:0.2;stroke-linejoin:round;stroke-dasharray:none;stroke-opacity:1;paint-order:markers fill stroke"
       d="m 182.73742,133.94543 c -2.70013,-0.65034 -3.92122,0.92065 -4.35771,2.15061 0.0191,0.72153 0.70596,1.66 1.08792,2.17933 -1.7963,-1.49487 -2.37338,-1.445 -3.68859,-1.40057 -1.96208,0.098 -4.01238,2.61698 -2.87551,5.1035 1.89651,0.23726 5.13573,-0.0821 7.372,-2.09461 1.15883,-1.94069 1.77263,-3.9438 2.46189,-5.93826 z"
       id="path80"
       sodipodi:nodetypes="ccccccc" />
    <path
       style="fill:#542288;fill-opacity:1;stroke:none;stroke-width:0.2;stroke-linejoin:round;stroke-dasharray:none;stroke-opacity:1;paint-order:markers fill stroke"
       d="m 136.01179,132.95535 c 1.53096,0.091 3.78753,0.52266 3.06089,3.16833 -0.06,0.72025 -0.58199,1.41136 -1.03557,1.91672 2.44245,-0.97648 3.67016,-1.63705 4.89313,-1.13261 1.62979,0.94146 2.19303,3.54164 1.98941,5.18909 -2.23594,0.22268 -4.70371,-0.59268 -6.71903,-1.9995 -0.94808,-2.30062 -1.67369,-4.68276 -2.18883,-7.14203 z"
       id="path81"
       sodipodi:nodetypes="ccccccc" />
    <path
       style="fill:none;fill-opacity:1;stroke:#000000;stroke-width:0.2;stroke-linejoin:round;stroke-dasharray:none;stroke-opacity:1;paint-order:markers fill stroke"
       d="m 135.03708,110.32329 c 7.35915,18.07389 35.17555,27.2598 49.01987,0.48686"
       id="path82"
       sodipodi:nodetypes="cc" />
    <path
       style="fill:#ff8c9e;fill-opacity:1;stroke:#000000;stroke-width:0.199999;stroke-linejoin:round;stroke-dasharray:none;stroke-opacity:1;paint-order:markers fill stroke"
       d="m 84.166701,220.78564 11.455966,-36.01728 c 3.697663,-8.35924 10.078843,-8.21155 13.521473,0.10235 l 12.63152,36.20301 c 8.04077,8.48116 20.57171,17.38574 20.12491,20.56714 -0.32679,3.34418 -11.76432,-4.20692 -18.86748,-9.23932 l 5.78744,25.80116 c -17.66189,3.85711 -35.40245,4.3154 -53.244456,-0.28668 l 6.208345,-25.89672 c -6.248307,3.78899 -17.799578,12.17175 -18.758515,9.33208 -1.908987,-2.68581 12.466977,-13.18816 21.140797,-20.56574 z"
       id="path83"
       sodipodi:nodetypes="ccccccccccc" />
    <path
       style="fill:#ff8c9e;fill-opacity:1;stroke:#000000;stroke-width:0.2;stroke-linejoin:round;stroke-dasharray:none;paint-order:markers fill stroke"
       d="m 90.251817,217.11151 c -1.093642,0.4233 -1.606863,1.01396 -1.644654,2.28306"
       id="path84"
       sodipodi:nodetypes="cc" />
    <path
       style="fill:#ff8c9e;fill-opacity:1;stroke:#000000;stroke-width:0.2;stroke-linejoin:round;stroke-dasharray:none;paint-order:markers fill stroke"
       d="m 115.2185,216.88468 c 1.27664,0.4233 1.87573,1.01397 1.91985,2.28306"
       id="path85"
       sodipodi:nodetypes="cc" />
    <path
       style="fill:#ff8c9e;fill-opacity:1;stroke:#000000;stroke-width:0.2;stroke-linejoin:round;stroke-dasharray:none;paint-order:markers fill stroke"
       d="m 89.267798,217.79228 c 3.317093,7.23707 23.064862,7.77917 27.176052,-0.0598"
       id="path86"
       sodipodi:nodetypes="cc" />
    <path
       style="fill:#52af33;fill-opacity:1;stroke:#000000;stroke-width:0.2;stroke-linejoin:round;stroke-dasharray:none;stroke-opacity:1;paint-order:markers fill stroke"
       d="m 75.592839,257.83618 c -0.02534,8.28493 1.415072,17.12116 2.376038,25.19208 l 14.23247,0.21282 2.653258,-5.9593 c 7.837755,2.21283 7.768905,2.18614 13.992675,0.0217 l 2.22937,5.83118 13.34701,0.0369 c 1.11563,-7.92108 3.35718,-17.28912 4.40743,-25.01909 -19.299,3.91136 -32.519802,4.86099 -53.238251,-0.29944 z"
       id="path87"
       sodipodi:nodetypes="cccccccccc" />
    <path
       style="fill:#ff8c9e;fill-opacity:1;stroke:#000000;stroke-width:0.2;stroke-linejoin:round;stroke-dasharray:none;stroke-opacity:1;paint-order:markers fill stroke"
       d="m 113.9517,283.24535 c 0.39298,2.87998 0.90139,5.97677 1.41374,7.74427 0.9954,2.78762 4.83977,3.59287 5.74006,0.0555 0.37567,-1.9113 0.89235,-5.36613 1.21872,-7.86898 z"
       id="path88"
       sodipodi:nodetypes="ccccc" />
    <path
       style="fill:#ff8c9e;fill-opacity:1;stroke:#000000;stroke-width:0.2;stroke-linejoin:round;stroke-dasharray:none;stroke-opacity:1;paint-order:markers fill stroke"
       d="m 81.010828,283.11021 c 0.392984,2.87998 0.766247,6.1457 1.278605,7.9132 0.995396,2.78762 4.839768,3.59287 5.740056,0.0555 0.375666,-1.9113 0.892351,-5.36613 1.21872,-7.86898 z"
       id="path89"
       sodipodi:nodetypes="ccccc" />
    <path
       style="fill:#ffffff;fill-opacity:1;stroke:#000000;stroke-width:0.2;stroke-linejoin:round;stroke-dasharray:none;stroke-opacity:1;paint-order:markers fill stroke"
       d="m 90.853523,207.57987 c 0.928994,-1.668 2.615014,-4.45545 5.542471,-4.53909 1.88398,-0.22567 5.162126,1.91972 6.044156,4.65854 0.25646,2.1973 -3.351988,5.36702 -6.107629,5.15973 -3.082609,-0.17945 -5.16711,-2.73517 -5.478998,-5.27918 z"
       id="path93"
       sodipodi:nodetypes="ccccc" />
    <path
       style="fill:#ffffff;fill-opacity:1;stroke:#000000;stroke-width:0.2;stroke-linejoin:round;stroke-dasharray:none;stroke-opacity:1;paint-order:markers fill stroke"
       d="m 103.43573,207.80478 c 0.69009,-2.09802 2.51945,-4.62268 5.44691,-4.70632 1.9943,-0.30205 5.21138,1.83104 6.04416,4.65854 -0.58852,2.19101 -2.89118,5.03963 -6.09194,4.96911 -2.71583,-0.2253 -4.97384,-2.3915 -5.39913,-4.92133 z"
       id="path94"
       sodipodi:nodetypes="ccccc" />
    <path
       style="fill:#010101;fill-opacity:1;stroke:#000000;stroke-width:0.2;stroke-linejoin:round;stroke-dasharray:none;stroke-opacity:1;paint-order:markers fill stroke"
       id="path95"
       sodipodi:type="arc"
       sodipodi:cx="108.09745"
       sodipodi:cy="208.13531"
       sodipodi:rx="2.2277389"
       sodipodi:ry="1.43937"
       sodipodi:start="0"
       sodipodi:end="6.268571"
       sodipodi:arc-type="arc"
       d="m 110.32519,208.13531 a 2.2277389,1.43937 0 0 1 -2.2196,1.43937 2.2277389,1.43937 0 0 1 -2.23582,-1.42885 2.2277389,1.43937 0 0 1 2.20326,-1.4498 2.2277389,1.43937 0 0 1 2.25192,1.41825"
       sodipodi:open="true" />
    <path
       style="fill:#010101;fill-opacity:1;stroke:#000000;stroke-width:0.2;stroke-linejoin:round;stroke-dasharray:none;stroke-opacity:1;paint-order:markers fill stroke"
       id="path96"
       sodipodi:type="arc"
       sodipodi:cx="97.770195"
       sodipodi:cy="208.03975"
       sodipodi:rx="2.2277389"
       sodipodi:ry="1.43937"
       sodipodi:start="0"
       sodipodi:end="6.268571"
       sodipodi:arc-type="arc"
       d="m 99.997934,208.03975 a 2.2277389,1.43937 0 0 1 -2.2196,1.43936 2.2277389,1.43937 0 0 1 -2.235818,-1.42884 2.2277389,1.43937 0 0 1 2.203262,-1.4498 2.2277389,1.43937 0 0 1 2.251918,1.41824"
       sodipodi:open="true" />
    <path
       style="fill:#ffa24c;fill-opacity:1;stroke:none;stroke-width:0.2;stroke-linejoin:round;stroke-dasharray:none;stroke-opacity:1;paint-order:markers fill stroke"
       d="m 82.906501,284.52698 -0.878425,1.23317 1.427438,6e-5 z"
       id="path97"
       sodipodi:nodetypes="cccc" />
    <path
       style="fill:#ffa24c;fill-opacity:1;stroke:none;stroke-width:0.2;stroke-linejoin:round;stroke-dasharray:none;stroke-opacity:1;paint-order:markers fill stroke"
       d="m 119.38647,290.30835 -0.87842,1.23317 1.42743,6e-5 z"
       id="path98"
       sodipodi:nodetypes="cccc" />
    <path
       style="fill:#ffa24c;fill-opacity:1;stroke:none;stroke-width:0.2;stroke-linejoin:round;stroke-dasharray:none;stroke-opacity:1;paint-order:markers fill stroke"
       d="m 80.565285,252.68166 -0.878425,1.23317 1.427438,6e-5 z"
       id="path99"
       sodipodi:nodetypes="cccc" />
    <path
       style="fill:#ffa24c;fill-opacity:1;stroke:none;stroke-width:0.2;stroke-linejoin:round;stroke-dasharray:none;stroke-opacity:1;paint-order:markers fill stroke"
       d="m 90.718519,233.59358 -0.878425,1.23317 1.427438,6e-5 z"
       id="path100"
       sodipodi:nodetypes="cccc" />
    <path
       style="fill:#ffa24c;fill-opacity:1;stroke:none;stroke-width:0.2;stroke-linejoin:round;stroke-dasharray:none;stroke-opacity:1;paint-order:markers fill stroke"
       d="m 115.99008,233.79629 -0.87843,1.23317 1.42744,6e-5 z"
       id="path101"
       sodipodi:nodetypes="cccc" />
    <path
       style="fill:#ffa24c;fill-opacity:1;stroke:none;stroke-width:0.2;stroke-linejoin:round;stroke-dasharray:none;stroke-opacity:1;paint-order:markers fill stroke"
       d="m 138.28851,239.06683 -0.87842,1.23317 1.42744,6e-5 z"
       id="path102"
       sodipodi:nodetypes="cccc" />
    <path
       style="fill:#ffa24c;fill-opacity:1;stroke:none;stroke-width:0.2;stroke-linejoin:round;stroke-dasharray:none;stroke-opacity:1;paint-order:markers fill stroke"
       d="m 68.893082,236.22885 -0.878425,1.23317 1.427438,6e-5 z"
       id="path103"
       sodipodi:nodetypes="cccc" />
    <path
       style="fill:#ffa24c;fill-opacity:1;stroke:none;stroke-width:0.2;stroke-linejoin:round;stroke-dasharray:none;stroke-opacity:1;paint-order:markers fill stroke"
       d="m 97.881047,183.38832 -0.878425,1.23317 1.427438,6e-5 z"
       id="path104"
       sodipodi:nodetypes="cccc" />
    <path
       style="fill:#ffa24c;fill-opacity:1;stroke:none;stroke-width:0.2;stroke-linejoin:round;stroke-dasharray:none;stroke-opacity:1;paint-order:markers fill stroke"
       d="m 108.55727,193.05098 -0.87843,1.23317 1.42744,6e-5 z"
       id="path105"
       sodipodi:nodetypes="cccc" />
    <path
       style="fill:#ff8c9e;fill-opacity:1;stroke:#000000;stroke-width:0.199999;stroke-linejoin:round;stroke-dasharray:none;paint-order:markers fill stroke"
       d="m 99.567511,258.70762 c 1.008339,1.43129 3.682189,1.66361 5.299749,0.10433"
       id="path106"
       sodipodi:nodetypes="cc" />
    <path
       style="fill:#ff8c9e;fill-opacity:1;stroke:#000000;stroke-width:0.199999;stroke-linejoin:round;stroke-dasharray:none;paint-order:markers fill stroke"
       d="m 100.28329,258.57345 c 0.74444,0.79523 2.71852,0.9243 3.91274,0.058"
       id="path107"
       sodipodi:nodetypes="cc" />
    <path
       style="fill:#00000f;fill-opacity:1;stroke:none;stroke-width:0.2;stroke-linejoin:round;stroke-dasharray:none;stroke-opacity:1;paint-order:markers fill stroke"
       d="m 90.268687,203.34119 2.550624,-2.17853 8.587199,-0.7065 -2.585837,2.03673 z"
       id="path108"
       sodipodi:nodetypes="ccccc" />
    <path
       style="fill:#00000f;fill-opacity:1;stroke:none;stroke-width:0.2;stroke-linejoin:round;stroke-dasharray:none;stroke-opacity:1;paint-order:markers fill stroke"
       d="m 114.62804,203.27362 -2.47848,-2.17853 -8.34428,-0.7065 2.51269,2.03673 z"
       id="path109"
       sodipodi:nodetypes="ccccc" />
    <path
       style="fill:#542288;fill-opacity:1;stroke:none;stroke-width:0.2;stroke-linejoin:round;stroke-dasharray:none;stroke-opacity:1;paint-order:markers fill stroke"
       d="m 91.838494,260.43737 c -0.827632,1.99184 -2.650111,6.57016 -3.526524,8.62958 2.7122,-0.40041 8.028114,-1.55276 10.549194,-2.1714 -0.684471,2.52209 -1.831228,6.37961 -2.544797,8.89557 2.893068,0.1579 7.644943,0.0659 11.257953,-0.33302 -0.96273,-2.10608 -1.75359,-6.23929 -2.41207,-8.5143 2.20602,0.7388 7.14242,1.71552 9.74581,2.69945 -0.99968,-2.41207 -2.34765,-7.11059 -2.89879,-8.80506 -5.26854,0.32803 -13.198344,0.895 -20.266336,-0.0902 z"
       id="path110"
       sodipodi:nodetypes="cccccccccc" />
    <path
       style="fill:none;fill-opacity:1;stroke:#000000;stroke-width:0.2;stroke-linejoin:round;stroke-dasharray:none;stroke-opacity:1;paint-order:markers fill stroke"
       d="m 75.584955,259.44419 c 16.154672,4.59026 30.403405,5.33012 52.871415,0.89229"
       id="path111"
       sodipodi:nodetypes="cc" />
    <path
       style="fill:#542288;fill-opacity:1;stroke:none;stroke-width:0.2;stroke-linejoin:round;stroke-dasharray:none;stroke-opacity:1;paint-order:markers fill stroke"
       d="m 77.045,274.91112 c 0.911481,0.99053 2.026449,2.18511 2.878718,3.32806 -0.618741,0.85179 -1.439694,1.80563 -1.903473,2.37958 3.696716,-1.21037 2.889449,-1.0146 4.040295,-1.3539 1.413019,1.39019 2.372746,2.56954 3.594472,3.84935 l -7.619618,-0.15929 z"
       id="path112"
       sodipodi:nodetypes="ccccccc" />
    <path
       style="fill:#542288;fill-opacity:1;stroke:none;stroke-width:0.2;stroke-linejoin:round;stroke-dasharray:none;stroke-opacity:1;paint-order:markers fill stroke"
       d="m 125.74682,275.01247 c -0.98593,0.99053 -2.5467,2.16822 -3.46858,3.31117 0.66928,0.85179 1.55728,1.80563 2.05893,2.37958 -3.99863,-1.21037 -3.12543,-1.0146 -4.37027,-1.3539 -1.52842,1.39019 -2.49896,2.48508 -3.82046,3.76489 l 8.22503,0.01 z"
       id="path113"
       sodipodi:nodetypes="ccccccc" />
  </g>
</svg>
