<?xml version="1.0" encoding="UTF-8" standalone="no"?>
<!-- Created with Inkscape (http://www.inkscape.org/) -->

<svg
   width="210mm"
   height="297mm"
   viewBox="0 0 210 297"
   version="1.1"
   id="svg1"
   inkscape:version="1.3.2 (091e20e, 2023-11-25, custom)"
   sodipodi:docname="CATINGAN-LOGO.svg"
   xmlns:inkscape="http://www.inkscape.org/namespaces/inkscape"
   xmlns:sodipodi="http://sodipodi.sourceforge.net/DTD/sodipodi-0.dtd"
   xmlns:xlink="http://www.w3.org/1999/xlink"
   xmlns="http://www.w3.org/2000/svg"
   xmlns:svg="http://www.w3.org/2000/svg">
  <sodipodi:namedview
     id="namedview1"
     pagecolor="#ffffff"
     bordercolor="#000000"
     borderopacity="0.25"
     inkscape:showpageshadow="2"
     inkscape:pageopacity="0.0"
     inkscape:pagecheckerboard="0"
     inkscape:deskcolor="#d1d1d1"
     inkscape:document-units="mm"
     showguides="false"
     showgrid="false"
     inkscape:zoom="0.80166725"
     inkscape:cx="136.59034"
     inkscape:cy="356.1328"
     inkscape:window-width="1920"
     inkscape:window-height="991"
     inkscape:window-x="-9"
     inkscape:window-y="-9"
     inkscape:window-maximized="1"
     inkscape:current-layer="svg1">
    <inkscape:grid
       id="grid28"
       units="mm"
       originx="0"
       originy="0"
       spacingx="0.99999998"
       spacingy="1"
       empcolor="#0099e5"
       empopacity="0.30196078"
       color="#0099e5"
       opacity="0.14901961"
       empspacing="5"
       dotted="false"
       gridanglex="30"
       gridanglez="30"
       visible="false" />
  </sodipodi:namedview>
  <defs
     id="defs1">
    <linearGradient
       id="swatch110"
       inkscape:swatch="solid">
      <stop
         style="stop-color:#003366;stop-opacity:1;"
         offset="0"
         id="stop110" />
    </linearGradient>
    <linearGradient
       id="swatch109"
       inkscape:swatch="solid">
      <stop
         style="stop-color:#003366;stop-opacity:1;"
         offset="0"
         id="stop109" />
    </linearGradient>
    <linearGradient
       id="swatch108"
       inkscape:swatch="solid">
      <stop
         style="stop-color:#003366;stop-opacity:1;"
         offset="0"
         id="stop108" />
    </linearGradient>
    <linearGradient
       id="swatch107"
       inkscape:swatch="solid">
      <stop
         style="stop-color:#003366;stop-opacity:1;"
         offset="0"
         id="stop107" />
    </linearGradient>
    <linearGradient
       id="swatch106"
       inkscape:swatch="solid">
      <stop
         style="stop-color:#003366;stop-opacity:1;"
         offset="0"
         id="stop106" />
    </linearGradient>
    <linearGradient
       id="swatch105"
       inkscape:swatch="solid">
      <stop
         style="stop-color:#003366;stop-opacity:1;"
         offset="0"
         id="stop105" />
    </linearGradient>
    <linearGradient
       id="swatch104"
       inkscape:swatch="solid">
      <stop
         style="stop-color:#003366;stop-opacity:1;"
         offset="0"
         id="stop104" />
    </linearGradient>
    <linearGradient
       id="swatch103"
       inkscape:swatch="solid">
      <stop
         style="stop-color:#003366;stop-opacity:1;"
         offset="0"
         id="stop103" />
    </linearGradient>
    <linearGradient
       id="swatch102"
       inkscape:swatch="solid">
      <stop
         style="stop-color:#003366;stop-opacity:1;"
         offset="0"
         id="stop102" />
    </linearGradient>
    <linearGradient
       id="swatch101"
       inkscape:swatch="solid">
      <stop
         style="stop-color:#003366;stop-opacity:1;"
         offset="0"
         id="stop101" />
    </linearGradient>
    <linearGradient
       id="swatch100"
       inkscape:swatch="solid">
      <stop
         style="stop-color:#003366;stop-opacity:1;"
         offset="0"
         id="stop100" />
    </linearGradient>
    <linearGradient
       id="swatch99"
       inkscape:swatch="solid">
      <stop
         style="stop-color:#003366;stop-opacity:1;"
         offset="0"
         id="stop99" />
    </linearGradient>
    <linearGradient
       id="swatch98"
       inkscape:swatch="solid">
      <stop
         style="stop-color:#003366;stop-opacity:1;"
         offset="0"
         id="stop98" />
    </linearGradient>
    <linearGradient
       id="swatch97"
       inkscape:swatch="solid">
      <stop
         style="stop-color:#003366;stop-opacity:1;"
         offset="0"
         id="stop97" />
    </linearGradient>
    <linearGradient
       id="swatch96"
       inkscape:swatch="solid">
      <stop
         style="stop-color:#003366;stop-opacity:1;"
         offset="0"
         id="stop96" />
    </linearGradient>
    <linearGradient
       id="swatch95"
       inkscape:swatch="solid">
      <stop
         style="stop-color:#003366;stop-opacity:1;"
         offset="0"
         id="stop95" />
    </linearGradient>
    <linearGradient
       id="swatch94"
       inkscape:swatch="solid">
      <stop
         style="stop-color:#003366;stop-opacity:1;"
         offset="0"
         id="stop94" />
    </linearGradient>
    <linearGradient
       id="swatch93"
       inkscape:swatch="solid">
      <stop
         style="stop-color:#003366;stop-opacity:1;"
         offset="0"
         id="stop93" />
    </linearGradient>
    <linearGradient
       id="swatch92"
       inkscape:swatch="solid">
      <stop
         style="stop-color:#003366;stop-opacity:1;"
         offset="0"
         id="stop92" />
    </linearGradient>
    <linearGradient
       id="swatch91"
       inkscape:swatch="solid">
      <stop
         style="stop-color:#003366;stop-opacity:1;"
         offset="0"
         id="stop91" />
    </linearGradient>
    <linearGradient
       id="swatch90"
       inkscape:swatch="solid">
      <stop
         style="stop-color:#003366;stop-opacity:1;"
         offset="0"
         id="stop90" />
    </linearGradient>
    <linearGradient
       id="swatch89"
       inkscape:swatch="solid">
      <stop
         style="stop-color:#003366;stop-opacity:1;"
         offset="0"
         id="stop89" />
    </linearGradient>
    <linearGradient
       id="swatch88"
       inkscape:swatch="solid">
      <stop
         style="stop-color:#003366;stop-opacity:1;"
         offset="0"
         id="stop88" />
    </linearGradient>
    <linearGradient
       id="swatch87"
       inkscape:swatch="solid">
      <stop
         style="stop-color:#003366;stop-opacity:1;"
         offset="0"
         id="stop87" />
    </linearGradient>
    <linearGradient
       id="swatch86"
       inkscape:swatch="solid">
      <stop
         style="stop-color:#003366;stop-opacity:1;"
         offset="0"
         id="stop86" />
    </linearGradient>
    <linearGradient
       id="swatch85"
       inkscape:swatch="solid">
      <stop
         style="stop-color:#003366;stop-opacity:1;"
         offset="0"
         id="stop85" />
    </linearGradient>
    <linearGradient
       id="swatch84"
       inkscape:swatch="solid">
      <stop
         style="stop-color:#003366;stop-opacity:1;"
         offset="0"
         id="stop84" />
    </linearGradient>
    <linearGradient
       id="swatch83"
       inkscape:swatch="solid">
      <stop
         style="stop-color:#003366;stop-opacity:1;"
         offset="0"
         id="stop83" />
    </linearGradient>
    <linearGradient
       id="swatch82"
       inkscape:swatch="solid">
      <stop
         style="stop-color:#003366;stop-opacity:1;"
         offset="0"
         id="stop82" />
    </linearGradient>
    <linearGradient
       id="swatch81"
       inkscape:swatch="solid">
      <stop
         style="stop-color:#003366;stop-opacity:1;"
         offset="0"
         id="stop81" />
    </linearGradient>
    <linearGradient
       id="swatch80"
       inkscape:swatch="solid">
      <stop
         style="stop-color:#003366;stop-opacity:1;"
         offset="0"
         id="stop80" />
    </linearGradient>
    <linearGradient
       id="swatch79"
       inkscape:swatch="solid">
      <stop
         style="stop-color:#003366;stop-opacity:1;"
         offset="0"
         id="stop79" />
    </linearGradient>
    <linearGradient
       id="swatch78"
       inkscape:swatch="solid">
      <stop
         style="stop-color:#003366;stop-opacity:1;"
         offset="0"
         id="stop78" />
    </linearGradient>
    <linearGradient
       id="swatch77"
       inkscape:swatch="solid">
      <stop
         style="stop-color:#003366;stop-opacity:1;"
         offset="0"
         id="stop77" />
    </linearGradient>
    <linearGradient
       id="swatch76"
       inkscape:swatch="solid">
      <stop
         style="stop-color:#003366;stop-opacity:1;"
         offset="0"
         id="stop76" />
    </linearGradient>
    <linearGradient
       id="swatch75"
       inkscape:swatch="solid">
      <stop
         style="stop-color:#003366;stop-opacity:1;"
         offset="0"
         id="stop75" />
    </linearGradient>
    <linearGradient
       id="swatch74"
       inkscape:swatch="solid">
      <stop
         style="stop-color:#003366;stop-opacity:1;"
         offset="0"
         id="stop74" />
    </linearGradient>
    <linearGradient
       id="swatch73"
       inkscape:swatch="solid">
      <stop
         style="stop-color:#003366;stop-opacity:1;"
         offset="0"
         id="stop73" />
    </linearGradient>
    <linearGradient
       id="swatch72"
       inkscape:swatch="solid">
      <stop
         style="stop-color:#003366;stop-opacity:1;"
         offset="0"
         id="stop72" />
    </linearGradient>
    <linearGradient
       id="swatch71"
       inkscape:swatch="solid">
      <stop
         style="stop-color:#003366;stop-opacity:1;"
         offset="0"
         id="stop71" />
    </linearGradient>
    <linearGradient
       id="swatch70"
       inkscape:swatch="solid">
      <stop
         style="stop-color:#003366;stop-opacity:1;"
         offset="0"
         id="stop70" />
    </linearGradient>
    <linearGradient
       id="swatch69"
       inkscape:swatch="solid">
      <stop
         style="stop-color:#003366;stop-opacity:1;"
         offset="0"
         id="stop69" />
    </linearGradient>
    <linearGradient
       id="swatch68"
       inkscape:swatch="solid">
      <stop
         style="stop-color:#003366;stop-opacity:1;"
         offset="0"
         id="stop68" />
    </linearGradient>
    <linearGradient
       id="swatch67"
       inkscape:swatch="solid">
      <stop
         style="stop-color:#003366;stop-opacity:1;"
         offset="0"
         id="stop67" />
    </linearGradient>
    <linearGradient
       id="swatch66"
       inkscape:swatch="solid">
      <stop
         style="stop-color:#003366;stop-opacity:1;"
         offset="0"
         id="stop66" />
    </linearGradient>
    <linearGradient
       id="swatch65"
       inkscape:swatch="solid">
      <stop
         style="stop-color:#003366;stop-opacity:1;"
         offset="0"
         id="stop65" />
    </linearGradient>
    <linearGradient
       id="swatch64"
       inkscape:swatch="solid">
      <stop
         style="stop-color:#003366;stop-opacity:1;"
         offset="0"
         id="stop64" />
    </linearGradient>
    <linearGradient
       id="swatch63"
       inkscape:swatch="solid">
      <stop
         style="stop-color:#003366;stop-opacity:1;"
         offset="0"
         id="stop63" />
    </linearGradient>
    <linearGradient
       id="swatch62"
       inkscape:swatch="solid">
      <stop
         style="stop-color:#003366;stop-opacity:1;"
         offset="0"
         id="stop62" />
    </linearGradient>
    <linearGradient
       id="swatch61"
       inkscape:swatch="solid">
      <stop
         style="stop-color:#003366;stop-opacity:1;"
         offset="0"
         id="stop61" />
    </linearGradient>
    <linearGradient
       id="swatch60"
       inkscape:swatch="solid">
      <stop
         style="stop-color:#003366;stop-opacity:1;"
         offset="0"
         id="stop60" />
    </linearGradient>
    <linearGradient
       id="swatch59"
       inkscape:swatch="solid">
      <stop
         style="stop-color:#003366;stop-opacity:1;"
         offset="0"
         id="stop59" />
    </linearGradient>
    <linearGradient
       id="swatch58"
       inkscape:swatch="solid">
      <stop
         style="stop-color:#008080;stop-opacity:1;"
         offset="0"
         id="stop58" />
    </linearGradient>
    <linearGradient
       id="swatch57"
       inkscape:swatch="solid">
      <stop
         style="stop-color:#008080;stop-opacity:1;"
         offset="0"
         id="stop57" />
    </linearGradient>
    <linearGradient
       id="swatch12"
       inkscape:swatch="solid">
      <stop
         style="stop-color:#ffffff;stop-opacity:1;"
         offset="0"
         id="stop12" />
    </linearGradient>
    <linearGradient
       id="swatch11"
       inkscape:swatch="solid">
      <stop
         style="stop-color:#000000;stop-opacity:0;"
         offset="0"
         id="stop11" />
    </linearGradient>
    <linearGradient
       id="swatch10"
       inkscape:swatch="solid">
      <stop
         style="stop-color:#000000;stop-opacity:0;"
         offset="0"
         id="stop10" />
    </linearGradient>
    <linearGradient
       id="swatch8"
       inkscape:swatch="solid">
      <stop
         style="stop-color:#00007f;stop-opacity:1;"
         offset="0"
         id="stop8" />
    </linearGradient>
    <linearGradient
       id="swatch2"
       inkscape:swatch="solid">
      <stop
         style="stop-color:#000080;stop-opacity:1;"
         offset="0"
         id="stop2" />
    </linearGradient>
    <linearGradient
       id="swatch1"
       inkscape:swatch="solid">
      <stop
         style="stop-color:#333333;stop-opacity:0.40265504;"
         offset="0"
         id="stop1" />
    </linearGradient>
    <linearGradient
       inkscape:collect="always"
       xlink:href="#swatch58"
       id="linearGradient58"
       x1="88.952131"
       y1="116.43833"
       x2="121.22718"
       y2="116.43833"
       gradientUnits="userSpaceOnUse" />
    <linearGradient
       inkscape:collect="always"
       xlink:href="#swatch2"
       id="linearGradient3"
       gradientUnits="userSpaceOnUse"
       gradientTransform="matrix(1.06631,0,0,1.0959033,-80.592562,105.362)"
       x1="122.81441"
       y1="78.208777"
       x2="229.07939"
       y2="78.208777" />
  </defs>
  <rect
     style="fill:#000000;fill-opacity:0;stroke:#008080;stroke-width:0.709;stroke-linecap:square;stroke-linejoin:bevel;stroke-dasharray:none;stroke-dashoffset:0;stroke-opacity:0.98431373;paint-order:stroke fill markers"
     id="rect9"
     width="38.09111"
     height="40.171612"
     x="86.074249"
     y="96.245201"
     ry="2.6895006"
     inkscape:transform-center-x="0.0059817913"
     inkscape:transform-center-y="-1.1249469"
     rx="2.6895006" />
  <rect
     style="fill:#000000;fill-opacity:0;stroke:#008080;stroke-width:0.709;stroke-linecap:square;stroke-linejoin:bevel;stroke-dasharray:none;stroke-dashoffset:0;stroke-opacity:0.98431373;paint-order:stroke fill markers"
     id="rect9-2"
     width="55.871288"
     height="58.350426"
     x="76.629257"
     y="87.204941"
     ry="3.2274005"
     inkscape:transform-center-x="0.13447475"
     inkscape:transform-center-y="-1.0758002"
     rx="3.2274005" />
  <path
     id="path10-5"
     style="display:inline;fill:url(#linearGradient58);stroke:#008080;stroke-width:0.709;stroke-linecap:butt;stroke-linejoin:miter;stroke-miterlimit:4;stroke-dasharray:none;stroke-dashoffset:0;stroke-opacity:0.98431373;paint-order:stroke fill markers;fill-opacity:1"
     inkscape:label="path10-5"
     d="m 105.08966,98.369924 a 15.782906,18.068403 0 0 0 -4.51445,0.792717 2.8575933,2.6222632 0 0 1 0.54725,1.542019 2.8575933,2.6222632 0 0 1 -2.857705,2.62258 2.8575933,2.6222632 0 0 1 -2.523356,-1.40611 15.782906,18.068403 0 0 0 -5.155756,7.46362 2.8575933,2.6222632 0 0 1 2.670121,2.61586 2.8575933,2.6222632 0 0 1 -2.857707,2.62258 2.8575933,2.6222632 0 0 1 -0.967899,-0.16226 15.782906,18.068403 0 0 0 -0.123507,1.97766 15.782906,18.068403 0 0 0 0.737939,5.29993 2.8575933,2.6222632 0 0 1 1.49655,-0.39171 2.8575933,2.6222632 0 0 1 2.857706,2.62207 2.8575933,2.6222632 0 0 1 -2.326989,2.5709 15.782906,18.068403 0 0 0 3.276292,4.0628 2.8575933,2.6222632 0 0 1 2.513536,-1.38906 2.8575933,2.6222632 0 0 1 2.857705,2.62206 2.8575933,2.6222632 0 0 1 -0.6718,1.68517 15.782906,18.068403 0 0 0 5.04207,0.98598 15.782906,18.068403 0 0 0 4.85604,-0.91312 2.8575933,2.6222632 0 0 1 -0.88884,-1.89239 2.8575933,2.6222632 0 0 1 2.85719,-2.62206 2.8575933,2.6222632 0 0 1 2.68149,1.71669 15.782906,18.068403 0 0 0 3.68091,-4.45089 2.8575933,2.6222632 0 0 1 -2.36161,-2.57762 2.8575933,2.6222632 0 0 1 2.85771,-2.62206 2.8575933,2.6222632 0 0 1 1.46347,0.37 15.782906,18.068403 0 0 0 0.63666,-5.07669 15.782906,18.068403 0 0 0 -0.093,-1.65158 2.8575933,2.6222632 0 0 1 -0.99891,0.17208 2.8575933,2.6222632 0 0 1 -2.85719,-2.62206 2.8575933,2.6222632 0 0 1 2.81068,-2.61948 15.782906,18.068403 0 0 0 -4.84828,-7.44399 2.8575933,2.6222632 0 0 1 -2.43396,1.25522 2.8575933,2.6222632 0 0 1 -2.85771,-2.62206 2.8575933,2.6222632 0 0 1 0.5793,-1.571479 15.782906,18.068403 0 0 0 -5.08393,-0.965317 z m 0.13126,9.253696 a 8.7408752,9.0770645 0 0 1 8.74055,9.07697 8.7408752,9.0770645 0 0 1 -8.74055,9.07696 8.7408752,9.0770645 0 0 1 -8.741061,-9.07696 8.7408752,9.0770645 0 0 1 8.741061,-9.07697 z" />
  <path
     style="fill:#000000;fill-opacity:0;stroke:#008080;stroke-width:0.809;stroke-linecap:butt;stroke-linejoin:miter;stroke-miterlimit:4;stroke-dasharray:none;stroke-dashoffset:0;stroke-opacity:0.98431373;paint-order:stroke fill markers"
     d="m 105.01274,145.31943 c -0.13448,18.62188 0,18.13185 0,18.13185 z"
     id="path19" />
  <path
     style="fill:#000000;fill-opacity:0;stroke:#008080;stroke-width:0.808999;stroke-linecap:butt;stroke-linejoin:miter;stroke-miterlimit:4;stroke-dasharray:none;stroke-dashoffset:0;stroke-opacity:0.98431373;paint-order:stroke fill markers"
     d="m 82.775085,145.31914 c -0.134474,10.63034 0,10.35059 0,10.35059 z"
     id="path20" />
  <path
     style="fill:#000000;fill-opacity:0;stroke:#008080;stroke-width:0.809;stroke-linecap:butt;stroke-linejoin:miter;stroke-miterlimit:4;stroke-dasharray:none;stroke-dashoffset:0;stroke-opacity:0.98431373;paint-order:stroke fill markers"
     d="m 126.51565,145.46948 c -0.13447,14.3957 0,14.01687 0,14.01687 z"
     id="path21" />
  <path
     style="fill:#000000;fill-opacity:0;stroke:#008080;stroke-width:0.808999;stroke-linecap:butt;stroke-linejoin:miter;stroke-miterlimit:4;stroke-dasharray:none;stroke-dashoffset:0;stroke-opacity:0.98431373;paint-order:stroke fill markers"
     d="m 70.663029,155.7304 c 12.378798,0.0501 12.051806,-0.0822 12.051806,-0.0822 z"
     id="path22"
     inkscape:transform-center-x="0.54896486"
     inkscape:transform-center-y="-2.0167652" />
  <path
     style="fill:#000000;fill-opacity:0;stroke:#008080;stroke-width:0.809;stroke-linecap:butt;stroke-linejoin:miter;stroke-miterlimit:4;stroke-dasharray:none;stroke-dashoffset:0;stroke-opacity:0.98431373;paint-order:stroke fill markers"
     d="m 126.01256,159.47282 c 20.35923,0.16395 19.82376,0.0285 19.82376,0.0285 z"
     id="path23"
     inkscape:transform-center-x="1.4156458"
     inkscape:transform-center-y="-3.2378394" />
  <ellipse
     style="fill:#000000;fill-opacity:0;stroke:#008080;stroke-width:0.809001;stroke-linecap:butt;stroke-linejoin:miter;stroke-miterlimit:4;stroke-dasharray:none;stroke-dashoffset:0;stroke-opacity:0.98431373;paint-order:stroke fill markers"
     id="path24"
     cx="104.92585"
     cy="165.11479"
     rx="1.3447502"
     ry="1.6137003" />
  <ellipse
     style="fill:#000000;fill-opacity:0;stroke:#008080;stroke-width:0.809001;stroke-linecap:butt;stroke-linejoin:miter;stroke-miterlimit:4;stroke-dasharray:none;stroke-dashoffset:0;stroke-opacity:0.98431373;paint-order:stroke fill markers"
     id="ellipse24"
     cx="147.89061"
     cy="159.46684"
     rx="1.3447502"
     ry="1.6137003" />
  <ellipse
     style="fill:#000000;fill-opacity:0;stroke:#008080;stroke-width:0.809001;stroke-linecap:butt;stroke-linejoin:miter;stroke-miterlimit:4;stroke-dasharray:none;stroke-dashoffset:0;stroke-opacity:0.98431373;paint-order:stroke fill markers"
     id="ellipse25"
     cx="146.34416"
     cy="72.825539"
     rx="1.3447502"
     ry="1.6137003" />
  <ellipse
     style="fill:#000000;fill-opacity:0;stroke:#008080;stroke-width:0.809001;stroke-linecap:butt;stroke-linejoin:miter;stroke-miterlimit:4;stroke-dasharray:none;stroke-dashoffset:0;stroke-opacity:0.98431373;paint-order:stroke fill markers"
     id="ellipse27"
     cx="69.116997"
     cy="155.69908"
     rx="1.3447502"
     ry="1.6137003" />
  <path
     style="fill:#000000;fill-opacity:0;stroke:#008080;stroke-width:0.809;stroke-linecap:butt;stroke-linejoin:miter;stroke-miterlimit:4;stroke-dasharray:none;stroke-dashoffset:0;stroke-opacity:0.98431373;paint-order:stroke fill markers"
     d="m 132.49958,116.43591 c 18.62151,0.14636 18.13159,0.0116 18.13159,0.0116 z"
     id="path27"
     inkscape:transform-center-x="3.4314933"
     inkscape:transform-center-y="-0.42067508" />
  <path
     style="fill:#000000;fill-opacity:0;stroke:#008080;stroke-width:0.808999;stroke-linecap:butt;stroke-linejoin:miter;stroke-miterlimit:4;stroke-dasharray:none;stroke-dashoffset:0;stroke-opacity:0.98431373;paint-order:stroke fill markers"
     d="m 132.48033,137.50744 c 10.62691,0.19504 10.34801,0.059 10.34801,0.059 z"
     id="path29" />
  <ellipse
     style="fill:#000000;fill-opacity:0;stroke:#008080;stroke-width:0.809001;stroke-linecap:butt;stroke-linejoin:miter;stroke-miterlimit:4;stroke-dasharray:none;stroke-dashoffset:0;stroke-opacity:0.98431373;paint-order:stroke fill markers"
     id="ellipse30"
     cx="142.81996"
     cy="151.31888"
     rx="1.3447502"
     ry="1.6137003" />
  <path
     style="fill:#000000;fill-opacity:0;stroke:#008080;stroke-width:0.808999;stroke-linecap:butt;stroke-linejoin:miter;stroke-miterlimit:4;stroke-dasharray:none;stroke-dashoffset:0;stroke-opacity:0.98431373;paint-order:stroke fill markers"
     d="m 142.77446,149.57621 c 0.11164,-12.37645 -0.0225,-12.05018 -0.0225,-12.05018 z"
     id="path30"
     inkscape:transform-center-x="2.0029629"
     inkscape:transform-center-y="0.53884112" />
  <ellipse
     style="fill:#000000;fill-opacity:0;stroke:#008080;stroke-width:0.809001;stroke-linecap:butt;stroke-linejoin:miter;stroke-miterlimit:4;stroke-dasharray:none;stroke-dashoffset:0;stroke-opacity:0.98431373;paint-order:stroke fill markers"
     id="ellipse31"
     cx="152.26352"
     cy="116.21103"
     rx="1.3447502"
     ry="1.6137003" />
  <path
     style="fill:#000000;fill-opacity:0;stroke:#008080;stroke-width:0.809;stroke-linecap:butt;stroke-linejoin:miter;stroke-miterlimit:4;stroke-dasharray:none;stroke-dashoffset:0;stroke-opacity:0.98431373;paint-order:stroke fill markers"
     d="m 132.42626,93.983482 c 14.39394,0.16395 14.01537,0.0285 14.01537,0.0285 z"
     id="path32"
     inkscape:transform-center-x="1.0008591"
     inkscape:transform-center-y="-3.2378394" />
  <path
     style="fill:#000000;fill-opacity:0;stroke:#008080;stroke-width:0.809;stroke-linecap:butt;stroke-linejoin:miter;stroke-miterlimit:4;stroke-dasharray:none;stroke-dashoffset:0;stroke-opacity:0.98431373;paint-order:stroke fill markers"
     d="m 146.3761,74.193442 c -0.13447,20.36019 0,19.82441 0,19.82441 z"
     id="path33" />
  <path
     style="fill:#000000;fill-opacity:0;stroke:#008080;stroke-width:0.809;stroke-linecap:butt;stroke-linejoin:miter;stroke-miterlimit:4;stroke-dasharray:none;stroke-dashoffset:0;stroke-opacity:0.98431373;paint-order:stroke fill markers"
     d="m 57.96197,116.67025 c 18.62151,0.14636 18.13159,0.0116 18.13159,0.0116 z"
     id="path34"
     inkscape:transform-center-x="3.4314933"
     inkscape:transform-center-y="-0.42067508" />
  <ellipse
     style="fill:#000000;fill-opacity:0;stroke:#008080;stroke-width:0.809001;stroke-linecap:butt;stroke-linejoin:miter;stroke-miterlimit:4;stroke-dasharray:none;stroke-dashoffset:0;stroke-opacity:0.98431373;paint-order:stroke fill markers"
     id="ellipse34"
     cx="56.317635"
     cy="116.65574"
     rx="1.3447502"
     ry="1.6137003" />
  <path
     style="fill:#000000;fill-opacity:0;stroke:#008080;stroke-width:0.809;stroke-linecap:butt;stroke-linejoin:miter;stroke-miterlimit:4;stroke-dasharray:none;stroke-dashoffset:0;stroke-opacity:0.98431373;paint-order:stroke fill markers"
     d="m 76.334032,93.931672 c -10.632779,-0.0909 -10.351789,0.0425 -10.351789,0.0425 z"
     id="path35" />
  <path
     style="fill:#000000;fill-opacity:0;stroke:#008080;stroke-width:0.808999;stroke-linecap:butt;stroke-linejoin:miter;stroke-miterlimit:4;stroke-dasharray:none;stroke-dashoffset:0;stroke-opacity:0.98431373;paint-order:stroke fill markers"
     d="m 65.965615,94.090852 c 0.179501,-12.377606 0.04379,-12.052009 0.04379,-12.052009 z"
     id="path36"
     inkscape:transform-center-x="2.0034775"
     inkscape:transform-center-y="0.52779915" />
  <ellipse
     style="fill:#000000;fill-opacity:0;stroke:#008080;stroke-width:0.809001;stroke-linecap:butt;stroke-linejoin:miter;stroke-miterlimit:4;stroke-dasharray:none;stroke-dashoffset:0;stroke-opacity:0.98431373;paint-order:stroke fill markers"
     id="ellipse36"
     cx="66.000084"
     cy="80.218689"
     rx="1.3447502"
     ry="1.6137003" />
  <path
     style="fill:#000000;fill-opacity:0;stroke:#008080;stroke-width:0.809;stroke-linecap:butt;stroke-linejoin:miter;stroke-miterlimit:4;stroke-dasharray:none;stroke-dashoffset:0;stroke-opacity:0.98431373;paint-order:stroke fill markers"
     d="m 105.14243,68.914545 c -0.13447,18.621877 0,18.131847 0,18.131847 z"
     id="path37" />
  <ellipse
     style="fill:#000000;fill-opacity:0;stroke:#008080;stroke-width:0.809001;stroke-linecap:butt;stroke-linejoin:miter;stroke-miterlimit:4;stroke-dasharray:none;stroke-dashoffset:0;stroke-opacity:0.98431373;paint-order:stroke fill markers"
     id="ellipse37"
     cx="105.07589"
     cy="67.120247"
     rx="1.3447502"
     ry="1.6137003" />
  <path
     style="fill:#000000;fill-opacity:0;stroke:#008080;stroke-width:0.808999;stroke-linecap:butt;stroke-linejoin:miter;stroke-miterlimit:4;stroke-dasharray:none;stroke-dashoffset:0;stroke-opacity:0.98431373;paint-order:stroke fill markers"
     d="m 126.99109,76.190019 c -0.13447,10.630333 0,10.350583 0,10.350583 z"
     id="path38" />
  <path
     style="fill:#000000;fill-opacity:0;stroke:#008080;stroke-width:0.808999;stroke-linecap:butt;stroke-linejoin:miter;stroke-miterlimit:4;stroke-dasharray:none;stroke-dashoffset:0;stroke-opacity:0.98431373;paint-order:stroke fill markers"
     d="m 126.76506,76.617017 c 12.3788,0.0501 12.05181,-0.0822 12.05181,-0.0822 z"
     id="path39"
     inkscape:transform-center-x="0.54896486"
     inkscape:transform-center-y="-2.0167652" />
  <ellipse
     style="fill:#000000;fill-opacity:0;stroke:#008080;stroke-width:0.809001;stroke-linecap:butt;stroke-linejoin:miter;stroke-miterlimit:4;stroke-dasharray:none;stroke-dashoffset:0;stroke-opacity:0.98431373;paint-order:stroke fill markers"
     id="ellipse39"
     cx="140.19193"
     cy="76.523598"
     rx="1.3447502"
     ry="1.6137003" />
  <path
     style="fill:#000000;fill-opacity:0;stroke:#008080;stroke-width:0.809;stroke-linecap:butt;stroke-linejoin:miter;stroke-miterlimit:4;stroke-dasharray:none;stroke-dashoffset:0;stroke-opacity:0.98431373;paint-order:stroke fill markers"
     d="m 62.100381,137.81914 c 14.394459,0.16395 14.015876,0.0285 14.015876,0.0285 z"
     id="path40"
     inkscape:transform-center-x="1.0008962"
     inkscape:transform-center-y="-3.2378394" />
  <path
     style="fill:#000000;fill-opacity:0;stroke:#008080;stroke-width:0.809;stroke-linecap:butt;stroke-linejoin:miter;stroke-miterlimit:4;stroke-dasharray:none;stroke-dashoffset:0;stroke-opacity:0.98431373;paint-order:stroke fill markers"
     d="m 62.418001,137.46252 c -0.134471,20.36019 0,19.82441 0,19.82441 z"
     id="path41" />
  <ellipse
     style="fill:#000000;fill-opacity:0;stroke:#008080;stroke-width:0.809001;stroke-linecap:butt;stroke-linejoin:miter;stroke-miterlimit:4;stroke-dasharray:none;stroke-dashoffset:0;stroke-opacity:0.98431373;paint-order:stroke fill markers"
     id="ellipse41"
     cx="62.413284"
     cy="159.12225"
     rx="1.3447502"
     ry="1.6137003" />
  <path
     style="fill:#000000;fill-opacity:0;stroke:#008080;stroke-width:0.809;stroke-linecap:butt;stroke-linejoin:miter;stroke-miterlimit:4;stroke-dasharray:none;stroke-dashoffset:0;stroke-opacity:0.98431373;paint-order:stroke fill markers"
     d="m 82.775085,72.727007 c -0.134474,14.395695 0,14.016865 0,14.016865 z"
     id="path42" />
  <path
     style="fill:#000000;fill-opacity:0;stroke:#008080;stroke-width:0.809;stroke-linecap:butt;stroke-linejoin:miter;stroke-miterlimit:4;stroke-dasharray:none;stroke-dashoffset:0;stroke-opacity:0.98431373;paint-order:stroke fill markers"
     d="m 63.06418,73.132733 c 20.359226,0.16395 19.823756,0.0285 19.823756,0.0285 z"
     id="path43"
     inkscape:transform-center-x="1.4156458"
     inkscape:transform-center-y="-3.2378394" />
  <ellipse
     style="fill:#000000;fill-opacity:0;stroke:#008080;stroke-width:0.809001;stroke-linecap:butt;stroke-linejoin:miter;stroke-miterlimit:4;stroke-dasharray:none;stroke-dashoffset:0;stroke-opacity:0.98431373;paint-order:stroke fill markers"
     id="ellipse48"
     cx="62.186508"
     cy="73.115921"
     rx="1.3447502"
     ry="1.6137003" />
  <path
     style="fill:#000000;fill-opacity:0;stroke:#008080;stroke-width:0.808999;stroke-linecap:butt;stroke-linejoin:miter;stroke-miterlimit:4;stroke-dasharray:none;stroke-dashoffset:0;stroke-opacity:0.98431373;paint-order:stroke fill markers"
     d="m 142.77446,149.57621 c 0.11164,-12.37645 -0.0225,-12.05018 -0.0225,-12.05018 z"
     id="path17"
     inkscape:transform-center-x="2.0029629"
     inkscape:transform-center-y="0.53884112" />
  <rect
     style="fill:#000000;fill-opacity:0;stroke:#008080;stroke-width:2.009;stroke-linecap:square;stroke-linejoin:bevel;stroke-dasharray:none;stroke-dashoffset:0;stroke-opacity:0.984314;paint-order:stroke fill markers"
     id="rect26"
     width="126.16072"
     height="121.00099"
     x="41.971661"
     y="54.622631"
     ry="2.6895006"
     inkscape:transform-center-x="0.019821541"
     inkscape:transform-center-y="-3.3884607"
     rx="2.6895006" />
  <rect
     style="fill:#000000;fill-opacity:0;stroke:#008080;stroke-width:0.909;stroke-linecap:square;stroke-linejoin:bevel;stroke-dasharray:none;stroke-dashoffset:0;stroke-opacity:0.98431373;paint-order:stroke fill markers"
     id="rect27"
     width="100.06895"
     height="102.61884"
     x="54.287552"
     y="64.934021"
     ry="3.2274008"
     inkscape:transform-center-x="0.24084492"
     inkscape:transform-center-y="-1.8919773"
     rx="3.2274005" />
  <path
     style="fill:#000000;fill-opacity:0;stroke:#008080;stroke-width:0.808999;stroke-linecap:butt;stroke-linejoin:miter;stroke-miterlimit:4;stroke-dasharray:none;stroke-dashoffset:0;stroke-opacity:0.98431373;paint-order:stroke fill markers"
     d="m 132.28067,125.2134 c 11.79537,0.19504 11.48581,0.059 11.48581,0.059 z"
     id="path28" />
  <path
     style="fill:#000000;fill-opacity:0;stroke:#008080;stroke-width:0.808999;stroke-linecap:butt;stroke-linejoin:miter;stroke-miterlimit:4;stroke-dasharray:none;stroke-dashoffset:0;stroke-opacity:0.98431373;paint-order:stroke fill markers"
     d="m 132.33921,107.4186 c 11.78621,0.19504 11.47689,0.059 11.47689,0.059 z"
     id="path31" />
  <ellipse
     style="fill:#000000;fill-opacity:0;stroke:#008080;stroke-width:0.809001;stroke-linecap:butt;stroke-linejoin:miter;stroke-miterlimit:4;stroke-dasharray:none;stroke-dashoffset:0;stroke-opacity:0.98431373;paint-order:stroke fill markers"
     id="ellipse32"
     cx="145.49565"
     cy="107.43031"
     rx="1.3447502"
     ry="1.6137003" />
  <ellipse
     style="fill:#000000;fill-opacity:0;stroke:#008080;stroke-width:0.809001;stroke-linecap:butt;stroke-linejoin:miter;stroke-miterlimit:4;stroke-dasharray:none;stroke-dashoffset:0;stroke-opacity:0.98431373;paint-order:stroke fill markers"
     id="ellipse33"
     cx="145.53691"
     cy="125.25255"
     rx="1.3447502"
     ry="1.6137003" />
  <path
     style="fill:#000000;fill-opacity:0;stroke:#008080;stroke-width:0.808999;stroke-linecap:butt;stroke-linejoin:miter;stroke-miterlimit:4;stroke-dasharray:none;stroke-dashoffset:0;stroke-opacity:0.98431373;paint-order:stroke fill markers"
     d="m 64.598222,107.4186 c 11.78621,0.19504 11.47689,0.059 11.47689,0.059 z"
     id="path44" />
  <path
     style="fill:#000000;fill-opacity:0;stroke:#008080;stroke-width:0.808999;stroke-linecap:butt;stroke-linejoin:miter;stroke-miterlimit:4;stroke-dasharray:none;stroke-dashoffset:0;stroke-opacity:0.98431373;paint-order:stroke fill markers"
     d="m 64.666379,125.46093 c 11.79537,0.19504 11.48581,0.059 11.48581,0.059 z"
     id="path45" />
  <ellipse
     style="fill:#000000;fill-opacity:0;stroke:#008080;stroke-width:0.809001;stroke-linecap:butt;stroke-linejoin:miter;stroke-miterlimit:4;stroke-dasharray:none;stroke-dashoffset:0;stroke-opacity:0.98431373;paint-order:stroke fill markers"
     id="ellipse45"
     cx="63.4939"
     cy="125.37811"
     rx="1.3447502"
     ry="1.6137003" />
  <ellipse
     style="fill:#000000;fill-opacity:0;stroke:#008080;stroke-width:0.809001;stroke-linecap:butt;stroke-linejoin:miter;stroke-miterlimit:4;stroke-dasharray:none;stroke-dashoffset:0;stroke-opacity:0.98431373;paint-order:stroke fill markers"
     id="ellipse46"
     cx="63.085495"
     cy="107.32076"
     rx="1.3447502"
     ry="1.6137003" />
  <path
     style="fill:#000000;fill-opacity:0;stroke:#008080;stroke-width:0.808999;stroke-linecap:butt;stroke-linejoin:miter;stroke-miterlimit:4;stroke-dasharray:none;stroke-dashoffset:0;stroke-opacity:0.98431373;paint-order:stroke fill markers"
     d="m 115.16565,157.05424 c 0.0926,-11.79662 -0.0408,-11.48589 -0.0408,-11.48589 z"
     id="path46" />
  <path
     style="fill:#000000;fill-opacity:0;stroke:#008080;stroke-width:0.808999;stroke-linecap:butt;stroke-linejoin:miter;stroke-miterlimit:4;stroke-dasharray:none;stroke-dashoffset:0;stroke-opacity:0.98431373;paint-order:stroke fill markers"
     d="m 94.885552,157.13174 c 0.0926,-11.79662 -0.0408,-11.48589 -0.0408,-11.48589 z"
     id="path47" />
  <ellipse
     style="fill:#000000;fill-opacity:0;stroke:#008080;stroke-width:0.809001;stroke-linecap:butt;stroke-linejoin:miter;stroke-miterlimit:4;stroke-dasharray:none;stroke-dashoffset:0;stroke-opacity:0.98431373;paint-order:stroke fill markers"
     id="ellipse47"
     cx="115.22351"
     cy="158.2813"
     rx="1.3447502"
     ry="1.6137003" />
  <ellipse
     style="fill:#000000;fill-opacity:0;stroke:#008080;stroke-width:0.809001;stroke-linecap:butt;stroke-linejoin:miter;stroke-miterlimit:4;stroke-dasharray:none;stroke-dashoffset:0;stroke-opacity:0.98431373;paint-order:stroke fill markers"
     id="ellipse49"
     cx="94.83242"
     cy="158.31776"
     rx="1.3447502"
     ry="1.6137003" />
  <path
     style="fill:#000000;fill-opacity:0;stroke:#008080;stroke-width:0.808999;stroke-linecap:butt;stroke-linejoin:miter;stroke-miterlimit:4;stroke-dasharray:none;stroke-dashoffset:0;stroke-opacity:0.98431373;paint-order:stroke fill markers"
     d="m 115.6038,75.582299 c -0.14719,11.796065 -0.0124,11.485956 -0.0124,11.485956 z"
     id="path51" />
  <path
     style="fill:#000000;fill-opacity:0;stroke:#008080;stroke-width:0.808999;stroke-linecap:butt;stroke-linejoin:miter;stroke-miterlimit:4;stroke-dasharray:none;stroke-dashoffset:0;stroke-opacity:0.98431373;paint-order:stroke fill markers"
     d="m 94.26841,75.532499 c -0.14719,11.796065 -0.0124,11.485956 -0.0124,11.485956 z"
     id="path52" />
  <ellipse
     style="fill:#000000;fill-opacity:0;stroke:#008080;stroke-width:0.809001;stroke-linecap:butt;stroke-linejoin:miter;stroke-miterlimit:4;stroke-dasharray:none;stroke-dashoffset:0;stroke-opacity:0.98431373;paint-order:stroke fill markers"
     id="ellipse52"
     cx="115.5547"
     cy="74.216133"
     rx="1.3447502"
     ry="1.6137003" />
  <ellipse
     style="fill:#000000;fill-opacity:0;stroke:#008080;stroke-width:0.809001;stroke-linecap:butt;stroke-linejoin:miter;stroke-miterlimit:4;stroke-dasharray:none;stroke-dashoffset:0;stroke-opacity:0.98431373;paint-order:stroke fill markers"
     id="ellipse53"
     cx="94.267036"
     cy="74.339905"
     rx="1.3447502"
     ry="1.6137003" />
  <text
     xml:space="preserve"
     style="font-size:3.175px;fill:#000080;stroke:#008080;stroke-width:2.009;stroke-linejoin:round;stroke-opacity:0.984314;paint-order:markers fill stroke"
     x="75.379959"
     y="220.30551"
     id="text2"><tspan
       sodipodi:role="line"
       id="tspan1"
       style="stroke-width:2.009" /></text>
  <path
     d="m 53.17805,196.79985 q 0.403321,1.9731 1.339026,2.95135 0.951837,0.96167 2.774848,0.96167 0.951837,0 1.710082,-0.33161 0.758243,-0.33162 1.209963,-1.06115 0.467852,-0.74614 0.467852,-1.85703 0,-1.02799 -0.371055,-1.77413 -0.371056,-0.7627 -1.193831,-1.44251 -0.822775,-0.6798 -2.290863,-1.44251 -1.258362,-0.64664 -2.274731,-1.34302 -1.016369,-0.69638 -1.742347,-1.52541 -0.709845,-0.84562 -1.113166,-1.84045 -0.387187,-0.99483 -0.387187,-2.23838 0,-2.0394 0.984102,-3.46534 0.984104,-1.42592 2.83938,-2.15547 1.87141,-0.74612 4.323601,-0.74612 1.435824,0 2.742583,0.1658 1.30676,0.14923 2.984576,0.54716 v 4.80837 h -2.210199 q -0.306524,-1.30987 -0.790509,-2.07258 -0.467853,-0.77928 -1.177698,-1.14405 -0.709844,-0.36478 -1.790745,-0.36478 -0.919572,0 -1.645549,0.33162 -0.725978,0.33161 -1.145433,0.99483 -0.419453,0.64664 -0.419453,1.57515 0,0.96168 0.354923,1.67464 0.371055,0.69639 1.226095,1.37619 0.85504,0.66322 2.484458,1.52542 1.984339,1.06115 3.113638,2.08915 1.145431,1.0114 1.677815,2.22179 0.548517,1.19381 0.548517,2.78554 0,2.03941 -0.919572,3.54824 -0.919572,1.49226 -2.678052,2.3047 -1.758479,0.79587 -4.065475,0.79587 -1.64555,0 -3.436296,-0.19896 -1.774612,-0.18239 -3.339497,-0.54717 v -5.10682 z m 30.958921,-16.53083 v 4.80837 h -2.194067 q -0.387188,-1.8736 -1.226096,-2.75238 -0.838908,-0.89535 -2.194066,-0.89535 -2.548989,0 -3.855749,2.52025 -1.30676,2.50367 -1.30676,7.44467 0,4.59283 1.19383,6.96385 1.19383,2.35444 3.500826,2.35444 1.177698,0 1.919808,-0.39793 0.742111,-0.41452 1.177698,-1.22697 0.451719,-0.81244 0.774377,-2.28812 h 2.210199 v 5.02392 q -1.774613,0.43109 -3.242702,0.63007 -1.468088,0.19896 -3.049107,0.19896 -3.35563,0 -5.485166,-1.24354 -2.113402,-1.24355 -3.129771,-3.74721 -1.000235,-2.52026 -1.000235,-6.36695 0,-3.59798 1.177697,-6.25087 1.19383,-2.66947 3.500826,-4.11198 2.306997,-1.44251 5.517431,-1.44251 1.629417,0 2.952311,0.18238 1.322893,0.18239 2.758716,0.5969 z m 13.664517,13.41369 v 4.54308 q 0,0.87877 0.04839,1.34302 0.0484,0.44767 0.177461,0.72954 0.129063,0.28188 0.306522,0.46427 0.193592,0.1658 0.516254,0.31503 0.33879,0.13264 0.90344,0.21554 v 1.09431 h -8.905327 v -1.09431 q 0.661447,-0.11606 1.048635,-0.29845 0.403321,-0.18239 0.596915,-0.53058 0.193594,-0.34819 0.241992,-0.87877 0.06453,-0.54716 0.06453,-1.3596 v -4.54308 l -4.371999,-9.48409 q -0.564651,-1.21038 -0.887307,-1.7907 -0.371055,-0.6798 -0.645313,-0.97826 -0.258126,-0.29845 -0.483985,-0.41451 -0.225861,-0.11606 -0.629181,-0.16581 v -1.09432 h 8.598803 v 1.09432 q -1.242228,0.16581 -1.242228,1.26012 0,0.4311 0.193594,1.02801 0.209726,0.59689 0.661446,1.59172 l 2.72645,6.2343 2.952307,-6.08507 q 0.435593,-0.91193 0.596913,-1.50883 0.17747,-0.61348 0.17747,-1.21038 0,-0.59691 -0.33879,-0.92851 -0.322663,-0.3482 -0.919573,-0.38136 v -1.09432 h 6.469263 v 1.09432 q -0.43558,0.0994 -0.72597,0.28187 -0.27426,0.16581 -0.61305,0.54716 -0.33879,0.36477 -0.80664,1.1109 -0.46786,0.74613 -1.0809,1.93992 z m 17.697732,-13.92769 v 1.09432 q -0.58079,0.16581 -0.91958,0.36478 -0.33879,0.18238 -0.53238,0.514 -0.17747,0.33161 -0.242,0.86218 -0.0484,0.51401 -0.0484,1.30986 v 16.51426 h 3.12977 q 0.9357,0 1.50035,-0.29845 0.56465,-0.29845 0.96797,-0.91193 0.41946,-0.63007 0.70985,-1.6249 0.30652,-1.01141 0.48399,-1.89019 h 2.21019 l -0.35492,6.69855 h -15.37463 v -1.09431 q 0.59692,-0.16581 0.93571,-0.36477 0.35492,-0.19897 0.51624,-0.53058 0.17747,-0.3482 0.22587,-0.86219 0.0484,-0.53058 0.0484,-1.32645 v -14.27587 q 0,-0.77929 -0.0484,-1.30986 -0.0323,-0.53058 -0.20973,-0.86219 -0.16133,-0.33162 -0.51625,-0.53058 -0.3388,-0.21555 -0.95184,-0.38136 v -1.09432 z m 18.19783,0 v 1.09432 q -0.58077,0.16581 -0.91956,0.36478 -0.3388,0.18238 -0.53239,0.514 -0.17746,0.33161 -0.24199,0.86218 -0.0484,0.51401 -0.0484,1.30986 v 16.51426 h 3.12976 q 0.93571,0 1.50036,-0.29845 0.56464,-0.29845 0.96797,-0.91193 0.41945,-0.63007 0.70984,-1.6249 0.30653,-1.01141 0.48398,-1.89019 h 2.2102 l -0.35492,6.69855 h -15.37462 v -1.09431 q 0.59691,-0.16581 0.9357,-0.36477 0.35492,-0.19897 0.51625,-0.53058 0.17746,-0.3482 0.22587,-0.86219 0.0484,-0.53058 0.0484,-1.32645 v -14.27587 q 0,-0.77929 -0.0484,-1.30986 -0.0323,-0.53058 -0.20973,-0.86219 -0.16133,-0.33162 -0.51626,-0.53058 -0.33879,-0.21555 -0.95183,-0.38136 v -1.09432 z m 21.19856,15.61891 h -6.88872 l -0.53238,1.57515 q -0.22587,0.66322 -0.37106,1.29328 -0.1452,0.61348 -0.1452,1.30987 0,1.6249 1.67782,1.74096 v 1.09431 h -6.88872 v -1.09431 q 0.59691,-0.0663 1.04863,-0.43109 0.45172,-0.36478 0.82278,-0.99484 0.37105,-0.63006 0.7905,-1.80728 l 6.7274,-18.42102 h 4.30746 l 5.32384,18.57024 q 0.35492,1.24355 0.59692,1.77412 0.24199,0.514 0.62918,0.84562 0.38719,0.31503 1.0809,0.46425 v 1.09431 h -8.90533 v -1.09431 q 0.83891,-0.0994 1.24223,-0.48084 0.40332,-0.38135 0.40332,-1.07773 0,-0.514 -0.11293,-1.14406 -0.11293,-0.63007 -0.37105,-1.59174 z m -6.27568,-1.93993 h 5.80783 l -2.58125,-9.33486 z"
     id="path2"
     style="font-weight:bold;font-size:33.4954px;font-family:Cambria;-inkscape-font-specification:'Cambria, Bold';fill:#000080;stroke:url(#linearGradient3);stroke-width:1.129;stroke-opacity:0.986726;fill-opacity:1"
     aria-label="SCYLLA" />
</svg>
