<?xml version="1.0" encoding="UTF-8" standalone="no"?>
<!-- Created with Inkscape (http://www.inkscape.org/) -->

<svg
   width="210mm"
   height="297mm"
   viewBox="0 0 210 297"
   version="1.1"
   id="svg1"
   inkscape:version="1.3.2 (091e20e, 2023-11-25, custom)"
   sodipodi:docname="LOGO.svg"
   xmlns:inkscape="http://www.inkscape.org/namespaces/inkscape"
   xmlns:sodipodi="http://sodipodi.sourceforge.net/DTD/sodipodi-0.dtd"
   xmlns:xlink="http://www.w3.org/1999/xlink"
   xmlns="http://www.w3.org/2000/svg"
   xmlns:svg="http://www.w3.org/2000/svg">
  <sodipodi:namedview
     id="namedview1"
     pagecolor="#ffffff"
     bordercolor="#000000"
     borderopacity="0.25"
     inkscape:showpageshadow="2"
     inkscape:pageopacity="0.0"
     inkscape:pagecheckerboard="0"
     inkscape:deskcolor="#d1d1d1"
     inkscape:document-units="mm"
     showguides="false"
     showgrid="false"
     inkscape:zoom="0.69562607"
     inkscape:cx="314.10554"
     inkscape:cy="512.48798"
     inkscape:window-width="1362"
     inkscape:window-height="877"
     inkscape:window-x="70"
     inkscape:window-y="-8"
     inkscape:window-maximized="1"
     inkscape:current-layer="svg1">
    <inkscape:grid
       id="grid28"
       units="mm"
       originx="0"
       originy="0"
       spacingx="0.99999998"
       spacingy="1"
       empcolor="#0099e5"
       empopacity="0.30196078"
       color="#0099e5"
       opacity="0.14901961"
       empspacing="5"
       dotted="false"
       gridanglex="30"
       gridanglez="30"
       visible="false" />
  </sodipodi:namedview>
  <defs
     id="defs1">
    <linearGradient
       id="swatch8"
       inkscape:swatch="solid">
      <stop
         style="stop-color:#000000;stop-opacity:1;"
         offset="0"
         id="stop8" />
    </linearGradient>
    <linearGradient
       id="swatch2"
       inkscape:swatch="solid">
      <stop
         style="stop-color:#060000;stop-opacity:0.98672599;"
         offset="0"
         id="stop2" />
    </linearGradient>
    <linearGradient
       id="swatch1"
       inkscape:swatch="solid">
      <stop
         style="stop-color:#333333;stop-opacity:0.40265504;"
         offset="0"
         id="stop1" />
    </linearGradient>
    <linearGradient
       inkscape:collect="always"
       xlink:href="#swatch2"
       id="linearGradient2"
       x1="122.81441"
       y1="78.208777"
       x2="229.07939"
       y2="78.208777"
       gradientUnits="userSpaceOnUse" />
    <linearGradient
       inkscape:collect="always"
       xlink:href="#swatch8"
       id="linearGradient8"
       x1="122.81464"
       y1="78.208777"
       x2="229.07916"
       y2="78.208777"
       gradientUnits="userSpaceOnUse" />
  </defs>
  <rect
     style="fill:#000000;fill-opacity:0;stroke:#000000;stroke-width:0.709;stroke-linecap:square;stroke-linejoin:bevel;stroke-dasharray:none;stroke-dashoffset:0;stroke-opacity:0.983403;paint-order:stroke fill markers"
     id="rect9"
     width="37.507675"
     height="40.171612"
     x="37.157234"
     y="111.32695"
     ry="2.6895006"
     inkscape:transform-center-x="0.0058896081"
     inkscape:transform-center-y="-1.1249469" />
  <rect
     style="fill:#000000;fill-opacity:0;stroke:#000000;stroke-width:0.709;stroke-linecap:square;stroke-linejoin:bevel;stroke-dasharray:none;stroke-dashoffset:0;stroke-opacity:0.983403;paint-order:stroke fill markers"
     id="rect9-2"
     width="55.871288"
     height="58.350426"
     x="27.71224"
     y="102.28669"
     ry="3.2274005"
     inkscape:transform-center-x="0.13447475"
     inkscape:transform-center-y="-1.0758002" />
  <ellipse
     style="fill:#000000;fill-opacity:0;stroke:#121212;stroke-width:0.709;stroke-linecap:butt;stroke-linejoin:miter;stroke-miterlimit:4;stroke-dasharray:none;stroke-dashoffset:0;stroke-opacity:1;paint-order:stroke fill markers"
     id="path10"
     ry="9.0770645"
     rx="8.7408752"
     cy="131.65114"
     cx="55.929501" />
  <path
     id="path10-5"
     style="fill:#000000;fill-opacity:0;stroke:#121212;stroke-width:0.709;stroke-linecap:butt;stroke-linejoin:miter;stroke-miterlimit:4;stroke-dasharray:none;stroke-dashoffset:0;stroke-opacity:1;paint-order:stroke fill markers"
     inkscape:label="path10-5"
     d="m 55.929554,113.5826 a 15.782906,18.068403 0 0 0 -4.514453,0.79272 2.8575933,2.6222632 0 0 1 0.547253,1.54202 2.8575933,2.6222632 0 0 1 -2.857706,2.62258 2.8575933,2.6222632 0 0 1 -2.52336,-1.40611 15.782906,18.068403 0 0 0 -5.155758,7.46362 2.8575933,2.6222632 0 0 1 2.670121,2.61586 2.8575933,2.6222632 0 0 1 -2.857707,2.62258 2.8575933,2.6222632 0 0 1 -0.967899,-0.16226 15.782906,18.068403 0 0 0 -0.123507,1.97766 15.782906,18.068403 0 0 0 0.73794,5.29993 2.8575933,2.6222632 0 0 1 1.496549,-0.39171 2.8575933,2.6222632 0 0 1 2.857707,2.62207 2.8575933,2.6222632 0 0 1 -2.32699,2.5709 15.782906,18.068403 0 0 0 3.276286,4.0628 2.8575933,2.6222632 0 0 1 2.513542,-1.38906 2.8575933,2.6222632 0 0 1 2.857706,2.62206 2.8575933,2.6222632 0 0 1 -0.671793,1.68517 15.782906,18.068403 0 0 0 5.042069,0.98598 15.782906,18.068403 0 0 0 4.856035,-0.91312 2.8575933,2.6222632 0 0 1 -0.888835,-1.89239 2.8575933,2.6222632 0 0 1 2.85719,-2.62206 2.8575933,2.6222632 0 0 1 2.68149,1.71669 15.782906,18.068403 0 0 0 3.680912,-4.45089 2.8575933,2.6222632 0 0 1 -2.361613,-2.57762 2.8575933,2.6222632 0 0 1 2.857707,-2.62206 2.8575933,2.6222632 0 0 1 1.463476,0.37 15.782906,18.068403 0 0 0 0.636654,-5.07669 15.782906,18.068403 0 0 0 -0.09302,-1.65158 2.8575933,2.6222632 0 0 1 -0.998906,0.17208 2.8575933,2.6222632 0 0 1 -2.85719,-2.62206 2.8575933,2.6222632 0 0 1 2.810681,-2.61948 15.782906,18.068403 0 0 0 -4.848283,-7.44399 2.8575933,2.6222632 0 0 1 -2.43396,1.25522 2.8575933,2.6222632 0 0 1 -2.857706,-2.62206 2.8575933,2.6222632 0 0 1 0.579293,-1.57148 15.782906,18.068403 0 0 0 -5.083928,-0.96532 z" />
  <path
     style="fill:#000000;fill-opacity:0;stroke:#121212;stroke-width:0.809;stroke-linecap:butt;stroke-linejoin:miter;stroke-miterlimit:4;stroke-dasharray:none;stroke-dashoffset:0;stroke-opacity:1;paint-order:stroke fill markers"
     d="m 56.095737,160.40118 c -0.134474,18.62188 0,18.13185 0,18.13185 z"
     id="path19" />
  <path
     style="fill:#000000;fill-opacity:0;stroke:#121212;stroke-width:0.808999;stroke-linecap:butt;stroke-linejoin:miter;stroke-miterlimit:4;stroke-dasharray:none;stroke-dashoffset:0;stroke-opacity:1;paint-order:stroke fill markers"
     d="m 33.858076,160.40089 c -0.134474,10.63034 0,10.35059 0,10.35059 z"
     id="path20" />
  <path
     style="fill:#000000;fill-opacity:0;stroke:#121212;stroke-width:0.809;stroke-linecap:butt;stroke-linejoin:miter;stroke-miterlimit:4;stroke-dasharray:none;stroke-dashoffset:0;stroke-opacity:1;paint-order:stroke fill markers"
     d="m 77.598649,160.55123 c -0.134474,14.3957 0,14.01687 0,14.01687 z"
     id="path21" />
  <path
     style="fill:#000000;fill-opacity:0;stroke:#121212;stroke-width:0.808999;stroke-linecap:butt;stroke-linejoin:miter;stroke-miterlimit:4;stroke-dasharray:none;stroke-dashoffset:0;stroke-opacity:1;paint-order:stroke fill markers"
     d="m 21.74602,170.81215 c 12.378798,0.0501 12.051806,-0.0822 12.051806,-0.0822 z"
     id="path22"
     inkscape:transform-center-x="0.54896486"
     inkscape:transform-center-y="-2.0167652" />
  <path
     style="fill:#000000;fill-opacity:0;stroke:#121212;stroke-width:0.809;stroke-linecap:butt;stroke-linejoin:miter;stroke-miterlimit:4;stroke-dasharray:none;stroke-dashoffset:0;stroke-opacity:1;paint-order:stroke fill markers"
     d="m 77.095561,174.55457 c 20.359226,0.16395 19.823756,0.0285 19.823756,0.0285 z"
     id="path23"
     inkscape:transform-center-x="1.4156458"
     inkscape:transform-center-y="-3.2378394" />
  <ellipse
     style="fill:#000000;fill-opacity:0;stroke:#121212;stroke-width:0.809001;stroke-linecap:butt;stroke-linejoin:miter;stroke-miterlimit:4;stroke-dasharray:none;stroke-dashoffset:0;stroke-opacity:1;paint-order:stroke fill markers"
     id="path24"
     cx="56.008846"
     cy="180.19653"
     rx="1.3447502"
     ry="1.6137003" />
  <ellipse
     style="fill:#000000;fill-opacity:0;stroke:#121212;stroke-width:0.809001;stroke-linecap:butt;stroke-linejoin:miter;stroke-miterlimit:4;stroke-dasharray:none;stroke-dashoffset:0;stroke-opacity:1;paint-order:stroke fill markers"
     id="ellipse24"
     cx="98.97361"
     cy="174.54858"
     rx="1.3447502"
     ry="1.6137003" />
  <ellipse
     style="fill:#000000;fill-opacity:0;stroke:#121212;stroke-width:0.809001;stroke-linecap:butt;stroke-linejoin:miter;stroke-miterlimit:4;stroke-dasharray:none;stroke-dashoffset:0;stroke-opacity:1;paint-order:stroke fill markers"
     id="ellipse25"
     cx="97.427155"
     cy="87.907288"
     rx="1.3447502"
     ry="1.6137003" />
  <ellipse
     style="fill:#000000;fill-opacity:0;stroke:#121212;stroke-width:0.809001;stroke-linecap:butt;stroke-linejoin:miter;stroke-miterlimit:4;stroke-dasharray:none;stroke-dashoffset:0;stroke-opacity:1;paint-order:stroke fill markers"
     id="ellipse27"
     cx="20.199984"
     cy="170.78082"
     rx="1.3447502"
     ry="1.6137003" />
  <path
     style="fill:#000000;fill-opacity:0;stroke:#121212;stroke-width:0.809;stroke-linecap:butt;stroke-linejoin:miter;stroke-miterlimit:4;stroke-dasharray:none;stroke-dashoffset:0;stroke-opacity:1;paint-order:stroke fill markers"
     d="m 83.582577,131.51766 c 18.621513,0.14636 18.131593,0.0116 18.131593,0.0116 z"
     id="path27"
     inkscape:transform-center-x="3.4314933"
     inkscape:transform-center-y="-0.42067508" />
  <path
     style="fill:#000000;fill-opacity:0;stroke:#121212;stroke-width:0.808999;stroke-linecap:butt;stroke-linejoin:miter;stroke-miterlimit:4;stroke-dasharray:none;stroke-dashoffset:0;stroke-opacity:1;paint-order:stroke fill markers"
     d="m 83.563327,152.58919 c 10.62691,0.19504 10.34801,0.059 10.34801,0.059 z"
     id="path29" />
  <ellipse
     style="fill:#000000;fill-opacity:0;stroke:#121212;stroke-width:0.809001;stroke-linecap:butt;stroke-linejoin:miter;stroke-miterlimit:4;stroke-dasharray:none;stroke-dashoffset:0;stroke-opacity:1;paint-order:stroke fill markers"
     id="ellipse30"
     cx="93.902962"
     cy="166.40062"
     rx="1.3447502"
     ry="1.6137003" />
  <path
     style="fill:#000000;fill-opacity:0;stroke:#121212;stroke-width:0.808999;stroke-linecap:butt;stroke-linejoin:miter;stroke-miterlimit:4;stroke-dasharray:none;stroke-dashoffset:0;stroke-opacity:1;paint-order:stroke fill markers"
     d="m 93.857457,164.65796 c 0.11164,-12.37645 -0.0225,-12.05018 -0.0225,-12.05018 z"
     id="path30"
     inkscape:transform-center-x="2.0029629"
     inkscape:transform-center-y="0.53884112" />
  <ellipse
     style="fill:#000000;fill-opacity:0;stroke:#121212;stroke-width:0.809001;stroke-linecap:butt;stroke-linejoin:miter;stroke-miterlimit:4;stroke-dasharray:none;stroke-dashoffset:0;stroke-opacity:1;paint-order:stroke fill markers"
     id="ellipse31"
     cx="103.34652"
     cy="131.29279"
     rx="1.3447502"
     ry="1.6137003" />
  <path
     style="fill:#000000;fill-opacity:0;stroke:#121212;stroke-width:0.809;stroke-linecap:butt;stroke-linejoin:miter;stroke-miterlimit:4;stroke-dasharray:none;stroke-dashoffset:0;stroke-opacity:1;paint-order:stroke fill markers"
     d="m 83.509257,109.06523 c 14.39394,0.16395 14.01537,0.0285 14.01537,0.0285 z"
     id="path32"
     inkscape:transform-center-x="1.0008591"
     inkscape:transform-center-y="-3.2378394" />
  <path
     style="fill:#000000;fill-opacity:0;stroke:#121212;stroke-width:0.809;stroke-linecap:butt;stroke-linejoin:miter;stroke-miterlimit:4;stroke-dasharray:none;stroke-dashoffset:0;stroke-opacity:1;paint-order:stroke fill markers"
     d="m 97.459097,89.27519 c -0.13447,20.36019 0,19.82441 0,19.82441 z"
     id="path33" />
  <path
     style="fill:#000000;fill-opacity:0;stroke:#121212;stroke-width:0.809;stroke-linecap:butt;stroke-linejoin:miter;stroke-miterlimit:4;stroke-dasharray:none;stroke-dashoffset:0;stroke-opacity:1;paint-order:stroke fill markers"
     d="m 9.0449604,131.752 c 18.6215106,0.14636 18.1315906,0.0116 18.1315906,0.0116 z"
     id="path34"
     inkscape:transform-center-x="3.4314933"
     inkscape:transform-center-y="-0.42067508" />
  <ellipse
     style="fill:#000000;fill-opacity:0;stroke:#121212;stroke-width:0.809001;stroke-linecap:butt;stroke-linejoin:miter;stroke-miterlimit:4;stroke-dasharray:none;stroke-dashoffset:0;stroke-opacity:1;paint-order:stroke fill markers"
     id="ellipse34"
     cx="8.1447754"
     cy="131.8143"
     rx="1.3447502"
     ry="1.6137003" />
  <path
     style="fill:#000000;fill-opacity:0;stroke:#121212;stroke-width:0.809;stroke-linecap:butt;stroke-linejoin:miter;stroke-miterlimit:4;stroke-dasharray:none;stroke-dashoffset:0;stroke-opacity:1;paint-order:stroke fill markers"
     d="m 27.417023,109.01342 c -10.632779,-0.0909 -10.351789,0.0425 -10.351789,0.0425 z"
     id="path35" />
  <path
     style="fill:#000000;fill-opacity:0;stroke:#121212;stroke-width:0.808999;stroke-linecap:butt;stroke-linejoin:miter;stroke-miterlimit:4;stroke-dasharray:none;stroke-dashoffset:0;stroke-opacity:1;paint-order:stroke fill markers"
     d="m 17.048606,109.1726 c 0.179501,-12.377606 0.04379,-12.052009 0.04379,-12.052009 z"
     id="path36"
     inkscape:transform-center-x="2.0034775"
     inkscape:transform-center-y="0.52779915" />
  <ellipse
     style="fill:#000000;fill-opacity:0;stroke:#121212;stroke-width:0.809001;stroke-linecap:butt;stroke-linejoin:miter;stroke-miterlimit:4;stroke-dasharray:none;stroke-dashoffset:0;stroke-opacity:1;paint-order:stroke fill markers"
     id="ellipse36"
     cx="17.083067"
     cy="95.300438"
     rx="1.3447502"
     ry="1.6137003" />
  <path
     style="fill:#000000;fill-opacity:0;stroke:#121212;stroke-width:0.809;stroke-linecap:butt;stroke-linejoin:miter;stroke-miterlimit:4;stroke-dasharray:none;stroke-dashoffset:0;stroke-opacity:1;paint-order:stroke fill markers"
     d="m 56.225433,83.996293 c -0.134474,18.621877 0,18.131847 0,18.131847 z"
     id="path37" />
  <ellipse
     style="fill:#000000;fill-opacity:0;stroke:#121212;stroke-width:0.809001;stroke-linecap:butt;stroke-linejoin:miter;stroke-miterlimit:4;stroke-dasharray:none;stroke-dashoffset:0;stroke-opacity:1;paint-order:stroke fill markers"
     id="ellipse37"
     cx="56.158871"
     cy="82.201996"
     rx="1.3447502"
     ry="1.6137003" />
  <path
     style="fill:#000000;fill-opacity:0;stroke:#121212;stroke-width:0.808999;stroke-linecap:butt;stroke-linejoin:miter;stroke-miterlimit:4;stroke-dasharray:none;stroke-dashoffset:0;stroke-opacity:1;paint-order:stroke fill markers"
     d="m 78.074091,91.271767 c -0.134474,10.630333 0,10.350583 0,10.350583 z"
     id="path38" />
  <path
     style="fill:#000000;fill-opacity:0;stroke:#121212;stroke-width:0.808999;stroke-linecap:butt;stroke-linejoin:miter;stroke-miterlimit:4;stroke-dasharray:none;stroke-dashoffset:0;stroke-opacity:1;paint-order:stroke fill markers"
     d="m 77.84806,91.698765 c 12.378797,0.0501 12.051807,-0.0822 12.051807,-0.0822 z"
     id="path39"
     inkscape:transform-center-x="0.54896486"
     inkscape:transform-center-y="-2.0167652" />
  <ellipse
     style="fill:#000000;fill-opacity:0;stroke:#121212;stroke-width:0.809001;stroke-linecap:butt;stroke-linejoin:miter;stroke-miterlimit:4;stroke-dasharray:none;stroke-dashoffset:0;stroke-opacity:1;paint-order:stroke fill markers"
     id="ellipse39"
     cx="91.274925"
     cy="91.605347"
     rx="1.3447502"
     ry="1.6137003" />
  <path
     style="fill:#000000;fill-opacity:0;stroke:#121212;stroke-width:0.809;stroke-linecap:butt;stroke-linejoin:miter;stroke-miterlimit:4;stroke-dasharray:none;stroke-dashoffset:0;stroke-opacity:1;paint-order:stroke fill markers"
     d="m 13.183372,152.90089 c 14.394459,0.16395 14.015876,0.0285 14.015876,0.0285 z"
     id="path40"
     inkscape:transform-center-x="1.0008962"
     inkscape:transform-center-y="-3.2378394" />
  <path
     style="fill:#000000;fill-opacity:0;stroke:#121212;stroke-width:0.809;stroke-linecap:butt;stroke-linejoin:miter;stroke-miterlimit:4;stroke-dasharray:none;stroke-dashoffset:0;stroke-opacity:1;paint-order:stroke fill markers"
     d="m 13.500992,152.54427 c -0.134471,20.36019 0,19.82441 0,19.82441 z"
     id="path41" />
  <ellipse
     style="fill:#000000;fill-opacity:0;stroke:#121212;stroke-width:0.809001;stroke-linecap:butt;stroke-linejoin:miter;stroke-miterlimit:4;stroke-dasharray:none;stroke-dashoffset:0;stroke-opacity:1;paint-order:stroke fill markers"
     id="ellipse41"
     cx="13.496265"
     cy="174.20399"
     rx="1.3447502"
     ry="1.6137003" />
  <path
     style="fill:#000000;fill-opacity:0;stroke:#121212;stroke-width:0.809;stroke-linecap:butt;stroke-linejoin:miter;stroke-miterlimit:4;stroke-dasharray:none;stroke-dashoffset:0;stroke-opacity:1;paint-order:stroke fill markers"
     d="m 33.858076,87.808755 c -0.134474,14.395695 0,14.016865 0,14.016865 z"
     id="path42" />
  <path
     style="fill:#000000;fill-opacity:0;stroke:#121212;stroke-width:0.809;stroke-linecap:butt;stroke-linejoin:miter;stroke-miterlimit:4;stroke-dasharray:none;stroke-dashoffset:0;stroke-opacity:1;paint-order:stroke fill markers"
     d="m 14.147171,88.214481 c 20.359226,0.16395 19.823756,0.0285 19.823756,0.0285 z"
     id="path43"
     inkscape:transform-center-x="1.4156458"
     inkscape:transform-center-y="-3.2378394" />
  <ellipse
     style="fill:#000000;fill-opacity:0;stroke:#121212;stroke-width:0.809001;stroke-linecap:butt;stroke-linejoin:miter;stroke-miterlimit:4;stroke-dasharray:none;stroke-dashoffset:0;stroke-opacity:1;paint-order:stroke fill markers"
     id="ellipse48"
     cx="13.269495"
     cy="88.19767"
     rx="1.3447502"
     ry="1.6137003" />
  <path
     style="fill:none;fill-opacity:0;stroke:#060000;stroke-width:0.823;stroke-opacity:0.986726"
     d="M 9.9511515,71.540711 C -9.7301905,73.771543 16.869845,170.33882 2.4205506,186.38239 28.826187,172.30734 77.995504,193.73369 105.42842,183.69289 124.74611,179.28615 95.297968,95.208321 112.69007,68.582264 82.036925,86.676583 30.096413,65.298162 9.9511515,71.540711 Z"
     id="path1"
     sodipodi:nodetypes="ccccc" />
  <text
     xml:space="preserve"
     style="font-style:normal;font-variant:normal;font-weight:bold;font-stretch:normal;font-size:30.9854px;font-family:Cambria;-inkscape-font-specification:'Cambria, Bold';font-variant-ligatures:normal;font-variant-caps:normal;font-variant-numeric:normal;font-variant-east-asian:normal;fill:url(#linearGradient8);fill-opacity:1;stroke:url(#linearGradient2);stroke-width:1.129;stroke-opacity:0.986726;stroke-dasharray:none"
     x="122.10825"
     y="88.534721"
     id="text1"
     transform="scale(0.91248926,1.0959033)"><tspan
       sodipodi:role="line"
       id="tspan1"
       style="font-style:normal;font-variant:normal;font-weight:bold;font-stretch:normal;font-size:30.9854px;font-family:Cambria;-inkscape-font-specification:'Cambria, Bold';font-variant-ligatures:normal;font-variant-caps:normal;font-variant-numeric:normal;font-variant-east-asian:normal;stroke-width:1.129;stroke:url(#linearGradient2);stroke-dasharray:none;fill:url(#linearGradient8);fill-opacity:1"
       x="122.10825"
       y="88.534721">SCYLLA</tspan></text>
</svg>
