<?xml version="1.0" encoding="UTF-8" standalone="no"?>
<!-- Created with Inkscape (http://www.inkscape.org/) -->

<svg
   width="210mm"
   height="297mm"
   viewBox="0 0 210 297"
   version="1.1"
   id="svg1"
   inkscape:version="1.3.2 (091e20e, 2023-11-25, custom)"
   sodipodi:docname="Logo.svg"
   xmlns:inkscape="http://www.inkscape.org/namespaces/inkscape"
   xmlns:sodipodi="http://sodipodi.sourceforge.net/DTD/sodipodi-0.dtd"
   xmlns="http://www.w3.org/2000/svg"
   xmlns:svg="http://www.w3.org/2000/svg">
  <sodipodi:namedview
     id="namedview1"
     pagecolor="#ffffff"
     bordercolor="#000000"
     borderopacity="0.25"
     inkscape:showpageshadow="2"
     inkscape:pageopacity="0.0"
     inkscape:pagecheckerboard="0"
     inkscape:deskcolor="#d1d1d1"
     inkscape:document-units="mm"
     showguides="true"
     showgrid="false"
     inkscape:zoom="0.69562607"
     inkscape:cx="201.97633"
     inkscape:cy="601.61633"
     inkscape:window-width="1362"
     inkscape:window-height="877"
     inkscape:window-x="70"
     inkscape:window-y="-8"
     inkscape:window-maximized="1"
     inkscape:current-layer="svg1">
    <inkscape:grid
       id="grid28"
       units="mm"
       originx="0"
       originy="0"
       spacingx="0.99999998"
       spacingy="1"
       empcolor="#0099e5"
       empopacity="0.30196078"
       color="#0099e5"
       opacity="0.14901961"
       empspacing="5"
       dotted="false"
       gridanglex="30"
       gridanglez="30"
       visible="false" />
  </sodipodi:namedview>
  <defs
     id="defs1">
    <linearGradient
       id="swatch7"
       inkscape:swatch="solid">
      <stop
         style="stop-color:#000000;stop-opacity:1;"
         offset="0"
         id="stop8" />
    </linearGradient>
    <linearGradient
       id="swatch1"
       inkscape:swatch="solid">
      <stop
         style="stop-color:#333333;stop-opacity:0.40265504;"
         offset="0"
         id="stop1" />
    </linearGradient>
  </defs>
  <rect
     style="fill:#000000;fill-opacity:0;stroke:#000000;stroke-width:0.709;stroke-linecap:square;stroke-linejoin:bevel;stroke-dasharray:none;stroke-dashoffset:0;stroke-opacity:0.983403;paint-order:stroke fill markers"
     id="rect9"
     width="37.507675"
     height="40.171612"
     x="34.453259"
     y="110.27818"
     ry="2.6895006"
     inkscape:transform-center-x="0.0058896081"
     inkscape:transform-center-y="-1.1249469" />
  <rect
     style="fill:#000000;fill-opacity:0;stroke:#000000;stroke-width:0.709;stroke-linecap:square;stroke-linejoin:bevel;stroke-dasharray:none;stroke-dashoffset:0;stroke-opacity:0.983403;paint-order:stroke fill markers"
     id="rect9-2"
     width="55.871288"
     height="58.350426"
     x="25.008263"
     y="101.23792"
     ry="3.2274005"
     inkscape:transform-center-x="0.13447475"
     inkscape:transform-center-y="-1.0758002" />
  <ellipse
     style="fill:#000000;fill-opacity:0;stroke:#121212;stroke-width:0.709;stroke-linecap:butt;stroke-linejoin:miter;stroke-miterlimit:4;stroke-dasharray:none;stroke-dashoffset:0;stroke-opacity:1;paint-order:stroke fill markers"
     id="path10"
     ry="9.0770645"
     rx="8.7408752"
     cy="130.60237"
     cx="53.225525" />
  <path
     id="path10-5"
     style="fill:#000000;fill-opacity:0;stroke:#121212;stroke-width:0.709;stroke-linecap:butt;stroke-linejoin:miter;stroke-miterlimit:4;stroke-dasharray:none;stroke-dashoffset:0;stroke-opacity:1;paint-order:stroke fill markers"
     inkscape:label="path10-5"
     d="m 53.225577,112.53383 a 15.782906,18.068403 0 0 0 -4.514453,0.79272 2.8575933,2.6222632 0 0 1 0.547253,1.54202 2.8575933,2.6222632 0 0 1 -2.857706,2.62258 2.8575933,2.6222632 0 0 1 -2.52336,-1.40611 15.782906,18.068403 0 0 0 -5.155758,7.46362 2.8575933,2.6222632 0 0 1 2.670121,2.61586 2.8575933,2.6222632 0 0 1 -2.857707,2.62258 2.8575933,2.6222632 0 0 1 -0.967899,-0.16226 15.782906,18.068403 0 0 0 -0.123507,1.97766 15.782906,18.068403 0 0 0 0.73794,5.29993 2.8575933,2.6222632 0 0 1 1.496549,-0.39171 2.8575933,2.6222632 0 0 1 2.857707,2.62207 2.8575933,2.6222632 0 0 1 -2.32699,2.5709 15.782906,18.068403 0 0 0 3.276286,4.0628 2.8575933,2.6222632 0 0 1 2.513542,-1.38906 2.8575933,2.6222632 0 0 1 2.857706,2.62206 2.8575933,2.6222632 0 0 1 -0.671793,1.68517 15.782906,18.068403 0 0 0 5.042069,0.98598 15.782906,18.068403 0 0 0 4.856035,-0.91312 2.8575933,2.6222632 0 0 1 -0.888835,-1.89239 2.8575933,2.6222632 0 0 1 2.85719,-2.62206 2.8575933,2.6222632 0 0 1 2.68149,1.71669 15.782906,18.068403 0 0 0 3.680912,-4.45089 2.8575933,2.6222632 0 0 1 -2.361613,-2.57762 2.8575933,2.6222632 0 0 1 2.857707,-2.62206 2.8575933,2.6222632 0 0 1 1.463476,0.37 15.782906,18.068403 0 0 0 0.636654,-5.07669 15.782906,18.068403 0 0 0 -0.09302,-1.65158 2.8575933,2.6222632 0 0 1 -0.998906,0.17208 2.8575933,2.6222632 0 0 1 -2.85719,-2.62206 2.8575933,2.6222632 0 0 1 2.810681,-2.61948 15.782906,18.068403 0 0 0 -4.848283,-7.44399 2.8575933,2.6222632 0 0 1 -2.43396,1.25522 2.8575933,2.6222632 0 0 1 -2.857706,-2.62206 2.8575933,2.6222632 0 0 1 0.579293,-1.57148 15.782906,18.068403 0 0 0 -5.083928,-0.96532 z" />
  <path
     style="fill:#000000;fill-opacity:0;stroke:#121212;stroke-width:0.809;stroke-linecap:butt;stroke-linejoin:miter;stroke-miterlimit:4;stroke-dasharray:none;stroke-dashoffset:0;stroke-opacity:1;paint-order:stroke fill markers"
     d="m 53.39176,159.35241 c -0.134474,18.62188 0,18.13185 0,18.13185 z"
     id="path19" />
  <path
     style="fill:#000000;fill-opacity:0;stroke:#121212;stroke-width:0.808999;stroke-linecap:butt;stroke-linejoin:miter;stroke-miterlimit:4;stroke-dasharray:none;stroke-dashoffset:0;stroke-opacity:1;paint-order:stroke fill markers"
     d="m 31.154099,159.35212 c -0.134474,10.63034 0,10.35059 0,10.35059 z"
     id="path20" />
  <path
     style="fill:#000000;fill-opacity:0;stroke:#121212;stroke-width:0.809;stroke-linecap:butt;stroke-linejoin:miter;stroke-miterlimit:4;stroke-dasharray:none;stroke-dashoffset:0;stroke-opacity:1;paint-order:stroke fill markers"
     d="m 74.894672,159.50246 c -0.134474,14.3957 0,14.01687 0,14.01687 z"
     id="path21" />
  <path
     style="fill:#000000;fill-opacity:0;stroke:#121212;stroke-width:0.808999;stroke-linecap:butt;stroke-linejoin:miter;stroke-miterlimit:4;stroke-dasharray:none;stroke-dashoffset:0;stroke-opacity:1;paint-order:stroke fill markers"
     d="m 19.042043,169.76338 c 12.378798,0.0501 12.051806,-0.0822 12.051806,-0.0822 z"
     id="path22"
     inkscape:transform-center-x="0.54896486"
     inkscape:transform-center-y="-2.0167652" />
  <path
     style="fill:#000000;fill-opacity:0;stroke:#121212;stroke-width:0.809;stroke-linecap:butt;stroke-linejoin:miter;stroke-miterlimit:4;stroke-dasharray:none;stroke-dashoffset:0;stroke-opacity:1;paint-order:stroke fill markers"
     d="m 74.391584,173.5058 c 20.359226,0.16395 19.823756,0.0285 19.823756,0.0285 z"
     id="path23"
     inkscape:transform-center-x="1.4156458"
     inkscape:transform-center-y="-3.2378394" />
  <ellipse
     style="fill:#000000;fill-opacity:0;stroke:#121212;stroke-width:0.809001;stroke-linecap:butt;stroke-linejoin:miter;stroke-miterlimit:4;stroke-dasharray:none;stroke-dashoffset:0;stroke-opacity:1;paint-order:stroke fill markers"
     id="path24"
     cx="53.304871"
     cy="179.14777"
     rx="1.3447502"
     ry="1.6137003" />
  <ellipse
     style="fill:#000000;fill-opacity:0;stroke:#121212;stroke-width:0.809001;stroke-linecap:butt;stroke-linejoin:miter;stroke-miterlimit:4;stroke-dasharray:none;stroke-dashoffset:0;stroke-opacity:1;paint-order:stroke fill markers"
     id="ellipse24"
     cx="96.26963"
     cy="173.49982"
     rx="1.3447502"
     ry="1.6137003" />
  <ellipse
     style="fill:#000000;fill-opacity:0;stroke:#121212;stroke-width:0.809001;stroke-linecap:butt;stroke-linejoin:miter;stroke-miterlimit:4;stroke-dasharray:none;stroke-dashoffset:0;stroke-opacity:1;paint-order:stroke fill markers"
     id="ellipse25"
     cx="94.723183"
     cy="86.858521"
     rx="1.3447502"
     ry="1.6137003" />
  <ellipse
     style="fill:#000000;fill-opacity:0;stroke:#121212;stroke-width:0.809001;stroke-linecap:butt;stroke-linejoin:miter;stroke-miterlimit:4;stroke-dasharray:none;stroke-dashoffset:0;stroke-opacity:1;paint-order:stroke fill markers"
     id="ellipse27"
     cx="17.496008"
     cy="169.73206"
     rx="1.3447502"
     ry="1.6137003" />
  <path
     style="fill:#000000;fill-opacity:0;stroke:#121212;stroke-width:0.809;stroke-linecap:butt;stroke-linejoin:miter;stroke-miterlimit:4;stroke-dasharray:none;stroke-dashoffset:0;stroke-opacity:1;paint-order:stroke fill markers"
     d="m 80.8786,130.46889 c 18.621509,0.14636 18.131589,0.0116 18.131589,0.0116 z"
     id="path27"
     inkscape:transform-center-x="3.4314933"
     inkscape:transform-center-y="-0.42067508" />
  <path
     style="fill:#000000;fill-opacity:0;stroke:#121212;stroke-width:0.808999;stroke-linecap:butt;stroke-linejoin:miter;stroke-miterlimit:4;stroke-dasharray:none;stroke-dashoffset:0;stroke-opacity:1;paint-order:stroke fill markers"
     d="m 80.85935,151.54042 c 10.62691,0.19504 10.34801,0.059 10.34801,0.059 z"
     id="path29" />
  <ellipse
     style="fill:#000000;fill-opacity:0;stroke:#121212;stroke-width:0.809001;stroke-linecap:butt;stroke-linejoin:miter;stroke-miterlimit:4;stroke-dasharray:none;stroke-dashoffset:0;stroke-opacity:1;paint-order:stroke fill markers"
     id="ellipse30"
     cx="91.19899"
     cy="165.35185"
     rx="1.3447502"
     ry="1.6137003" />
  <path
     style="fill:#000000;fill-opacity:0;stroke:#121212;stroke-width:0.808999;stroke-linecap:butt;stroke-linejoin:miter;stroke-miterlimit:4;stroke-dasharray:none;stroke-dashoffset:0;stroke-opacity:1;paint-order:stroke fill markers"
     d="m 91.15348,163.60919 c 0.11164,-12.37645 -0.0225,-12.05018 -0.0225,-12.05018 z"
     id="path30"
     inkscape:transform-center-x="2.0029629"
     inkscape:transform-center-y="0.53884112" />
  <ellipse
     style="fill:#000000;fill-opacity:0;stroke:#121212;stroke-width:0.809001;stroke-linecap:butt;stroke-linejoin:miter;stroke-miterlimit:4;stroke-dasharray:none;stroke-dashoffset:0;stroke-opacity:1;paint-order:stroke fill markers"
     id="ellipse31"
     cx="100.65572"
     cy="130.44572"
     rx="1.3447502"
     ry="1.6137003" />
  <path
     style="fill:#000000;fill-opacity:0;stroke:#121212;stroke-width:0.809;stroke-linecap:butt;stroke-linejoin:miter;stroke-miterlimit:4;stroke-dasharray:none;stroke-dashoffset:0;stroke-opacity:1;paint-order:stroke fill markers"
     d="m 80.80528,108.01646 c 14.39394,0.16395 14.01537,0.0285 14.01537,0.0285 z"
     id="path32"
     inkscape:transform-center-x="1.0008591"
     inkscape:transform-center-y="-3.2378394" />
  <path
     style="fill:#000000;fill-opacity:0;stroke:#121212;stroke-width:0.809;stroke-linecap:butt;stroke-linejoin:miter;stroke-miterlimit:4;stroke-dasharray:none;stroke-dashoffset:0;stroke-opacity:1;paint-order:stroke fill markers"
     d="m 94.75512,88.22642 c -0.13447,20.36019 0,19.82441 0,19.82441 z"
     id="path33" />
  <path
     style="fill:#000000;fill-opacity:0;stroke:#121212;stroke-width:0.809;stroke-linecap:butt;stroke-linejoin:miter;stroke-miterlimit:4;stroke-dasharray:none;stroke-dashoffset:0;stroke-opacity:1;paint-order:stroke fill markers"
     d="m 6.340984,130.70323 c 18.62151,0.14636 18.13159,0.0116 18.13159,0.0116 z"
     id="path34"
     inkscape:transform-center-x="3.4314933"
     inkscape:transform-center-y="-0.42067508" />
  <ellipse
     style="fill:#000000;fill-opacity:0;stroke:#121212;stroke-width:0.809001;stroke-linecap:butt;stroke-linejoin:miter;stroke-miterlimit:4;stroke-dasharray:none;stroke-dashoffset:0;stroke-opacity:1;paint-order:stroke fill markers"
     id="ellipse34"
     cx="5.4407983"
     cy="130.76553"
     rx="1.3447502"
     ry="1.6137003" />
  <path
     style="fill:#000000;fill-opacity:0;stroke:#121212;stroke-width:0.809;stroke-linecap:butt;stroke-linejoin:miter;stroke-miterlimit:4;stroke-dasharray:none;stroke-dashoffset:0;stroke-opacity:1;paint-order:stroke fill markers"
     d="m 24.713046,107.96465 c -10.632779,-0.0909 -10.351789,0.0425 -10.351789,0.0425 z"
     id="path35" />
  <path
     style="fill:#000000;fill-opacity:0;stroke:#121212;stroke-width:0.808999;stroke-linecap:butt;stroke-linejoin:miter;stroke-miterlimit:4;stroke-dasharray:none;stroke-dashoffset:0;stroke-opacity:1;paint-order:stroke fill markers"
     d="m 14.344629,108.12383 c 0.179501,-12.377606 0.04379,-12.052009 0.04379,-12.052009 z"
     id="path36"
     inkscape:transform-center-x="2.0034775"
     inkscape:transform-center-y="0.52779915" />
  <ellipse
     style="fill:#000000;fill-opacity:0;stroke:#121212;stroke-width:0.809001;stroke-linecap:butt;stroke-linejoin:miter;stroke-miterlimit:4;stroke-dasharray:none;stroke-dashoffset:0;stroke-opacity:1;paint-order:stroke fill markers"
     id="ellipse36"
     cx="14.379091"
     cy="94.251671"
     rx="1.3447502"
     ry="1.6137003" />
  <path
     style="fill:#000000;fill-opacity:0;stroke:#121212;stroke-width:0.809;stroke-linecap:butt;stroke-linejoin:miter;stroke-miterlimit:4;stroke-dasharray:none;stroke-dashoffset:0;stroke-opacity:1;paint-order:stroke fill markers"
     d="m 53.521456,82.947523 c -0.134474,18.621877 0,18.131847 0,18.131847 z"
     id="path37" />
  <ellipse
     style="fill:#000000;fill-opacity:0;stroke:#121212;stroke-width:0.809001;stroke-linecap:butt;stroke-linejoin:miter;stroke-miterlimit:4;stroke-dasharray:none;stroke-dashoffset:0;stroke-opacity:1;paint-order:stroke fill markers"
     id="ellipse37"
     cx="53.454895"
     cy="81.153229"
     rx="1.3447502"
     ry="1.6137003" />
  <path
     style="fill:#000000;fill-opacity:0;stroke:#121212;stroke-width:0.808999;stroke-linecap:butt;stroke-linejoin:miter;stroke-miterlimit:4;stroke-dasharray:none;stroke-dashoffset:0;stroke-opacity:1;paint-order:stroke fill markers"
     d="m 75.370114,90.222997 c -0.134474,10.630333 0,10.350583 0,10.350583 z"
     id="path38" />
  <path
     style="fill:#000000;fill-opacity:0;stroke:#121212;stroke-width:0.808999;stroke-linecap:butt;stroke-linejoin:miter;stroke-miterlimit:4;stroke-dasharray:none;stroke-dashoffset:0;stroke-opacity:1;paint-order:stroke fill markers"
     d="m 75.144083,90.649995 c 12.378797,0.0501 12.051807,-0.0822 12.051807,-0.0822 z"
     id="path39"
     inkscape:transform-center-x="0.54896486"
     inkscape:transform-center-y="-2.0167652" />
  <ellipse
     style="fill:#000000;fill-opacity:0;stroke:#121212;stroke-width:0.809001;stroke-linecap:butt;stroke-linejoin:miter;stroke-miterlimit:4;stroke-dasharray:none;stroke-dashoffset:0;stroke-opacity:1;paint-order:stroke fill markers"
     id="ellipse39"
     cx="88.570953"
     cy="90.55658"
     rx="1.3447502"
     ry="1.6137003" />
  <path
     style="fill:#000000;fill-opacity:0;stroke:#121212;stroke-width:0.809;stroke-linecap:butt;stroke-linejoin:miter;stroke-miterlimit:4;stroke-dasharray:none;stroke-dashoffset:0;stroke-opacity:1;paint-order:stroke fill markers"
     d="m 10.479396,151.85212 c 14.394458,0.16395 14.015875,0.0285 14.015875,0.0285 z"
     id="path40"
     inkscape:transform-center-x="1.0008962"
     inkscape:transform-center-y="-3.2378394" />
  <path
     style="fill:#000000;fill-opacity:0;stroke:#121212;stroke-width:0.809;stroke-linecap:butt;stroke-linejoin:miter;stroke-miterlimit:4;stroke-dasharray:none;stroke-dashoffset:0;stroke-opacity:1;paint-order:stroke fill markers"
     d="m 10.797015,151.4955 c -0.13447,20.36019 0,19.82441 0,19.82441 z"
     id="path41" />
  <ellipse
     style="fill:#000000;fill-opacity:0;stroke:#121212;stroke-width:0.809001;stroke-linecap:butt;stroke-linejoin:miter;stroke-miterlimit:4;stroke-dasharray:none;stroke-dashoffset:0;stroke-opacity:1;paint-order:stroke fill markers"
     id="ellipse41"
     cx="10.79229"
     cy="173.15523"
     rx="1.3447502"
     ry="1.6137003" />
  <path
     style="fill:#000000;fill-opacity:0;stroke:#121212;stroke-width:0.809;stroke-linecap:butt;stroke-linejoin:miter;stroke-miterlimit:4;stroke-dasharray:none;stroke-dashoffset:0;stroke-opacity:1;paint-order:stroke fill markers"
     d="m 31.154099,86.759985 c -0.134474,14.395695 0,14.016865 0,14.016865 z"
     id="path42" />
  <path
     style="fill:#000000;fill-opacity:0;stroke:#121212;stroke-width:0.809;stroke-linecap:butt;stroke-linejoin:miter;stroke-miterlimit:4;stroke-dasharray:none;stroke-dashoffset:0;stroke-opacity:1;paint-order:stroke fill markers"
     d="m 11.443194,87.165711 c 20.359226,0.16395 19.823756,0.0285 19.823756,0.0285 z"
     id="path43"
     inkscape:transform-center-x="1.4156458"
     inkscape:transform-center-y="-3.2378394" />
  <ellipse
     style="fill:#000000;fill-opacity:0;stroke:#121212;stroke-width:0.809001;stroke-linecap:butt;stroke-linejoin:miter;stroke-miterlimit:4;stroke-dasharray:none;stroke-dashoffset:0;stroke-opacity:1;paint-order:stroke fill markers"
     id="ellipse48"
     cx="10.565519"
     cy="87.148903"
     rx="1.3447502"
     ry="1.6137003" />
  <path
     style="fill:none;fill-opacity:1;stroke:#060000;stroke-width:0.91988;stroke-dasharray:none;stroke-opacity:0.986726"
     d="M 2.2643783,79.173437 C 2.9992239,55.00044 68.756404,90.995232 107.35387,68.05199 l 0.36108,113.82097 c -9.645829,22.24152 -65.556459,-9.672 -105.4322409,8.82728 z"
     id="path2"
     sodipodi:nodetypes="ccccc" />
  <text
     xml:space="preserve"
     style="font-size:12.7px;white-space:pre;inline-size:32.3436;fill:none;fill-opacity:1;stroke:#060000;stroke-width:0.943999;stroke-dasharray:none;stroke-opacity:0.986726"
     x="124.75572"
     y="94.327492"
     id="text8"><tspan
       x="124.75572"
       y="94.327492"
       id="tspan2"><tspan
         dx="0 8.6816406 8.8676758 7.8134766 7.0693359 7.0693359"
         style="stroke-width:0.944"
         id="tspan1">SCYLLA</tspan></tspan></text>
</svg>
